<?xml version="1.0" encoding="UTF-8"?>
<!DOCTYPE svg PUBLIC "-//W3C//DTD SVG 1.1//EN" "http://www.w3.org/Graphics/SVG/1.1/DTD/svg11.dtd">
<!-- Creator: CorelDRAW 2021 (64-Bit) -->
<svg xmlns="http://www.w3.org/2000/svg" xml:space="preserve" width="144.461mm" height="140.536mm" version="1.1" style="shape-rendering:geometricPrecision; text-rendering:geometricPrecision; image-rendering:optimizeQuality; fill-rule:evenodd; clip-rule:evenodd"
viewBox="0 0 11934.73 11610.46"
 xmlns:xlink="http://www.w3.org/1999/xlink"
 xmlns:xodm="http://www.corel.com/coreldraw/odm/2003">
 <defs>
  <style type="text/css">
   <![CDATA[
    .fil7 {fill:#FEFEFE;fill-rule:nonzero}
    .fil6 {fill:#F29794;fill-rule:nonzero}
    .fil4 {fill:#ED7068;fill-rule:nonzero}
    .fil0 {fill:#F4F4F4;fill-rule:nonzero}
    .fil1 {fill:#EBECEC;fill-rule:nonzero}
    .fil2 {fill:#E0E0E0;fill-rule:nonzero}
    .fil5 {fill:#CD5446;fill-rule:nonzero}
    .fil8 {fill:#B5B6B5;fill-rule:nonzero}
    .fil9 {fill:#3F5E69;fill-rule:nonzero}
    .fil3 {fill:#29383E;fill-rule:nonzero}
   ]]>
  </style>
 </defs>
 <g id="Layer_x0020_1">
  <metadata id="CorelCorpID_0Corel-Layer"/>
  <g id="_1581332018880">
   <polygon class="fil0" points="6000.21,7429.05 5998.29,7429.05 5997.01,7429.25 6001.64,7429.32 "/>
   <polygon class="fil0" points="5978.07,7429.05 5982.14,7429.11 5982.4,7429.05 "/>
   <polygon class="fil0" points="6034.1,7429.63 6030.67,7429.05 6027.64,7429.55 "/>
   <path class="fil0" d="M4448.12 7168.58c13.96,2.39 27.72,4.75 41.83,7.17 362.71,60.19 781.23,129.63 1241.55,206.05 -59.4,-10.46 -117.98,-20.75 -175.95,-30.95 -353.5,-58.18 -724.22,-119.21 -1107.42,-182.28z"/>
   <path class="fil0" d="M5731.5 7381.81c81.75,14.37 164.93,29 249.22,43.8 5.25,0.07 10.4,0.09 15.65,0.15 -89.65,-14.9 -178.08,-29.55 -264.87,-43.95z"/>
   <polygon class="fil0" points="6001.64,7429.32 6003.56,7429.63 6005.29,7429.05 6000.21,7429.05 "/>
   <path class="fil0" d="M5954.6 7408.15c9.27,3.26 18.68,6.59 27.97,9.88l2.07 0.36c-10,-3.41 -20.03,-6.82 -30.05,-10.24z"/>
   <polygon class="fil0" points="6002.26,7424.39 5999.17,7423.87 6003.74,7425.49 6004.24,7425.41 6002.45,7424.44 "/>
   <path class="fil0" d="M7434.13 7912.22c-470.31,-160.94 -920.31,-314.91 -1340.19,-458.57 62.02,21.8 123.36,43.37 183.93,64.65 426.59,145.31 815.88,277.95 1156.26,393.92z"/>
   <path class="fil0" d="M5642.49 7223.96c39.43,21.18 79.1,42.52 119.23,64.12 -413.22,-227.18 -788.9,-433.7 -1114.42,-612.68 -227.57,-123.6 -430.47,-233.83 -604.7,-328.46 67.91,37.28 136.13,74.73 204.8,112.44 487.47,267.15 956.39,524.14 1395.08,764.58z"/>
   <path class="fil0" d="M6006.39 7420.72l-4.55 -3.56 -2.73 -1.45c2.83,2.19 5.56,4.31 8.36,6.5l-0.82 -1.2 -0.26 -0.29z"/>
   <path class="fil0" d="M5982.49 7406.76c-74.64,-40.13 -148.32,-79.74 -220.77,-118.68 76.44,42.03 154.32,84.81 233.25,128.21 -4.2,-3.21 -8.25,-6.3 -12.47,-9.53z"/>
   <path class="fil0" d="M5686.61 7172.34c29.09,22.3 58.84,45.06 88.37,67.7 -370.05,-288.94 -707.26,-552.2 -999.32,-780.23 -189.94,-146.78 -360.79,-278.83 -510.04,-394.16 49.14,38.3 98.22,76.59 147.8,115.24 445.22,346.71 872.95,679.78 1273.2,991.45z"/>
   <path class="fil0" d="M6021.22 7431.53c4.37,2.39 8.77,4.81 13.14,7.2l-3.61 -2.77 -4.4 -3.35 -5.57 -1.92 -0.12 0.03 0.55 0.82z"/>
   <path class="fil0" d="M6006.39 7420.72l-0.12 -0.12c-3.99,-4.23 -7.9,-8.31 -11.91,-12.51 -74.35,-56.98 -147.44,-112.96 -219.38,-168.05 74.35,58.03 149.92,117.05 226.86,177.11l4.55 3.56z"/>
   <polygon class="fil0" points="6006.65,7420.98 6006.27,7420.6 6006.39,7420.72 6006.65,7421.01 "/>
   <path class="fil0" d="M6023.15 7445.31l2.25 3.3c-1.69,-3.49 -3.41,-7 -5.11,-10.53l0.26 1.87 2.59 5.36z"/>
   <path class="fil0" d="M6005.49 7414.62c-56.37,-81.48 -111.68,-161.46 -166.12,-240.18 51.38,75.75 103.61,152.69 156.74,230.98 3.45,3.7 6.77,7.25 10.2,10.93l-0.82 -1.73z"/>
   <path class="fil0" d="M5731.5 7018.54c35.49,51.32 71.46,103.29 107.86,155.9 -4.31,-6.32 -8.66,-12.74 -12.94,-19.06 -31.45,-45.32 -63.02,-90.84 -94.93,-136.84z"/>
   <polygon class="fil0" points="6008.08,7422.46 6006.65,7420.98 6006.65,7421.01 6007.47,7422.2 6007.73,7422.4 "/>
   <path class="fil0" d="M5884.92 7160.48c36.37,76.63 73.35,154.59 110.8,233.6 3.01,4.4 5.92,8.66 8.92,13.06 -40.51,-83.47 -80.5,-165.81 -119.73,-246.66z"/>
   <path class="fil0" d="M6009.89 7419.93c-2.02,-2.92 -3.97,-5.74 -5.97,-8.63l1.57 3.32 0.82 1.73 3.64 3.87 -0.06 -0.29z"/>
   <path class="fil0" d="M5820.48 7027.67c21.31,43.89 42.73,88.08 64.44,132.81 -2.57,-5.44 -5.11,-10.78 -7.7,-16.2 -18.8,-38.65 -37.71,-77.53 -56.74,-116.61z"/>
   <polygon class="fil0" points="6013,7415.59 6011.17,7409.67 6011.87,7414.54 6012.86,7416.58 "/>
   <path class="fil0" d="M6005.66 7391.78c-8.68,-28.13 -17.31,-56.05 -25.91,-83.91 8.92,29.64 17.78,59.23 26.61,88.55l-0.7 -4.63z"/>
   <path class="fil0" d="M5551.23 5880.15c-10.38,-34.1 -20.55,-67.53 -30.6,-100.63 39.85,132.7 79.3,263.99 118.24,393.66 -30.25,-101.16 -59.51,-199.03 -87.64,-293.02z"/>
   <path class="fil0" d="M5921.58 6777.5c16.99,113.75 34.42,230.27 52.22,349.61 -67.96,-483.77 -129.75,-923.69 -183.32,-1304.96 -67.68,-465.77 -122.56,-843.37 -160.85,-1107.08 29.7,209.93 59.86,423.65 90.44,640.58 69.88,493.02 137.47,969.95 201.51,1421.84z"/>
   <polygon class="fil0" points="6016.62,7413.51 6016.59,7416.98 6016.94,7415.82 "/>
   <path class="fil0" d="M6013.5 7394.4l0 -1.72c-13.43,-89.85 -26.67,-178.48 -39.7,-265.57 12.97,92.24 26.17,186.21 39.58,281.54 0.03,-4.75 0.06,-9.5 0.12,-14.25z"/>
   <path class="fil0" d="M6017.67 7434.09c1.34,4.43 2.68,8.89 3.99,13.32l-1.07 -7.29 -0.03 -0.17 -0.26 -1.87 -1.92 -3.93 -0.64 -0.46 -0.06 0.4z"/>
   <path class="fil0" d="M6013.33 7413.55l0.21 -1.2c-0.03,-6 -0.03,-11.95 -0.03,-17.95 -0.06,4.75 -0.08,9.5 -0.12,14.25l-0.06 4.9z"/>
   <polygon class="fil0" points="6013.04,7447.71 6013.56,7444.24 6013.09,7441.17 "/>
   <path class="fil0" d="M6058.36 7129.53c-13.64,86.04 -27.52,173.58 -41.6,262.33 -0.02,5.54 -0.08,10.99 -0.12,16.5 14.11,-94.4 28.04,-187.49 41.71,-278.83z"/>
   <path class="fil0" d="M6259.98 5782.75c-2.16,13.9 -4.25,27.63 -6.44,41.7 -57.04,381.28 -122.81,821.19 -195.17,1305.08 9.88,-62.37 19.61,-123.87 29.25,-184.75 55.03,-370.94 112.73,-759.97 172.36,-1162.03z"/>
   <polygon class="fil0" points="6013,7415.59 6012.86,7416.58 6013.53,7418.01 6013.53,7412.35 6013.33,7413.55 "/>
   <path class="fil0" d="M5565.42 8885.6c148.61,-480.95 290.87,-941.38 423.83,-1371.77 -20.43,64.38 -40.66,128.1 -60.59,190.96 -133.48,433.91 -255.72,831.33 -363.24,1180.81z"/>
   <polygon class="fil0" points="6017.94,7414.6 6017.99,7414.42 6018.49,7411.07 6016.94,7415.82 6016.59,7416.98 6016.59,7417.36 "/>
   <path class="fil0" d="M6033.81 7362.98c-3.26,10.15 -6.53,20.46 -9.79,30.63l-0.35 2.27c3.38,-10.95 6.76,-21.92 10.14,-32.91z"/>
   <path class="fil0" d="M6208.39 7036.06c-20.08,41.36 -40.3,82.98 -60.73,125.09 215.75,-434.43 411.96,-829.37 581.95,-1171.65 118.86,-242.16 224.62,-457.69 315.29,-642.41 -36.49,73.56 -73.16,147.5 -110.09,221.91 -253.82,512.64 -498,1005.74 -726.43,1467.07z"/>
   <path class="fil0" d="M6021.58 7418.59l3.23 -4.58 1.43 -2.97c-2.07,3 -4.11,5.88 -6.2,8.86l1.11 -0.82 0.44 -0.5z"/>
   <path class="fil0" d="M6034.72 7393.61c38.18,-78.63 75.86,-156.19 112.94,-232.46 -39.99,80.5 -80.71,162.49 -122.01,245.61 3.07,-4.43 6.01,-8.72 9.07,-13.14z"/>
   <path class="fil0" d="M6258.57 7080.91c-21.74,31.39 -43.92,63.42 -65.98,95.28 274.86,-389.52 525.28,-744.44 742.17,-1051.84 141.79,-203.02 269.07,-385.26 379.94,-544.02 -38.18,54.15 -76.34,108.33 -114.86,163.01 -329.14,467.69 -645.36,917.04 -941.27,1337.57z"/>
   <path class="fil0" d="M6011.23 7434.3c-2.3,4.6 -4.58,9.24 -6.85,13.81l2.57 -3.73 3.26 -4.66 1.78 -5.86 0 -0.12 -0.76 0.55z"/>
   <path class="fil0" d="M6021.58 7418.59c4.02,-4.22 7.92,-8.36 11.97,-12.62 53.89,-77.87 106.9,-154.44 159.04,-229.78 -54.99,77.96 -110.86,157.15 -167.78,237.82l-3.23 4.58z"/>
   <path class="fil0" d="M5998.2 7436.28l-3.26 2.45c3.35,-1.81 6.71,-3.61 10.05,-5.42l-1.8 0.32 -4.99 2.65z"/>
   <path class="fil0" d="M6396.28 7135.3c-46.45,35.56 -93.46,71.55 -141.03,107.99 5.83,-4.4 11.6,-8.75 17.43,-13.12 40.92,-31.39 82.07,-62.98 123.6,-94.87z"/>
   <path class="fil0" d="M6027.35 7417.71c77.3,-59.16 153.21,-117.27 227.9,-174.43 -71.87,53.95 -145.04,108.91 -219.34,164.67 -3.47,3.61 -6.82,7.08 -10.29,10.67l1.72 -0.91z"/>
   <polygon class="fil0" points="6019.83,7420.45 6021.14,7419.08 6020.03,7419.9 6019.85,7420.13 "/>
   <path class="fil0" d="M6403.28 7218.68c-44.48,23.9 -89.24,47.94 -134.62,72.34 5.57,-2.94 11.02,-5.8 16.56,-8.72 39.11,-21.07 78.48,-42.28 118.07,-63.62z"/>
   <path class="fil0" d="M6268.66 7291.02c-72.78,38.21 -146.82,77.09 -221.84,116.5 -4.17,3.11 -8.28,6.2 -12.42,9.33 79.27,-42.58 157.46,-84.58 234.26,-125.82z"/>
   <path class="fil0" d="M6022.22 7422.4c2.77,-2.12 5.45,-4.2 8.22,-6.32l-3.09 1.63 -1.72 0.91 -3.7 3.84 0.29 -0.06z"/>
   <path class="fil0" d="M7486.69 6939.27c32.81,-11.06 64.99,-21.9 96.85,-32.66 -126.49,42.1 -251.64,83.72 -375.24,124.85 96.09,-31.83 189.09,-62.63 278.39,-92.19z"/>
   <path class="fil0" d="M6048.94 7417.95c26.26,-8.98 52.35,-17.89 78.34,-26.78 -27.66,9.18 -55.26,18.39 -82.66,27.48l4.31 -0.69z"/>
   <polygon class="fil0" points="6026.35,7425.67 6031.92,7423.75 6027.38,7424.48 6025.42,7425.49 "/>
   <path class="fil0" d="M6047.87 7426.2c85.3,-14.14 169.49,-28.1 252.18,-41.8 -87.55,13.67 -176.76,27.57 -267.25,41.68 5.01,0.02 10.05,0.08 15.07,0.12z"/>
   <path class="fil0" d="M6633.84 7329.06c-108.59,18.01 -219.84,36.46 -333.8,55.34 460.43,-71.81 879.11,-137.09 1241.96,-193.67 446.65,-72.02 808.21,-130.33 1059.33,-170.82l0.88 -0.15c-201.98,31.71 -407.71,63.94 -616.5,96.62 -468.75,73.77 -922.21,145.08 -1351.87,212.67z"/>
   <polygon class="fil0" points="6026.15,7429.81 6027.64,7429.55 6030.67,7429.05 6030.47,7429.02 6023.93,7429.02 "/>
   <polygon class="fil0" points="6020.79,7430.68 6020.61,7430.66 6020.67,7430.71 "/>
   <path class="fil0" d="M6009.3 7430.39c-4.37,1.45 -8.74,2.92 -13.14,4.37l6.82 -1.11 0.21 -0.02 1.8 -0.32 3.68 -1.98 0.64 -0.93z"/>
   <path class="fil0" d="M6028.51 7426.05c5.72,0.99 11.43,1.98 17.08,2.97 101.72,-0.06 201.62,-0.12 299.64,-0.2 -92.31,-0.79 -186.17,-1.64 -281.74,-2.48 -5.18,-0.03 -10.43,-0.09 -15.61,-0.15 -5.01,-0.03 -10.05,-0.09 -15.07,-0.12l-4.29 -0.03z"/>
   <path class="fil0" d="M8630.48 7443.57c125.85,-0.47 223.74,-0.85 291.39,-1.08 32.62,-0.52 57.76,-0.9 75.78,-1.2 17.04,-0.44 25.79,-0.96 25.82,-1.51 0,-0.55 -8.74,-1.14 -25.82,-1.72 -18.02,-0.44 -43.14,-1.02 -75.78,-1.81 -67.61,-0.82 -165.54,-1.98 -291.36,-3.47 -254.03,-1.13 -619.86,-2.73 -1071.75,-4.72 -355.71,0.23 -764.65,0.5 -1213.53,0.76 448.88,3.96 857.82,7.58 1213.53,10.69 451.87,1.72 817.69,3.09 1071.72,4.06z"/>
   <path class="fil0" d="M6005.29 7429.05l3.49 -1.22 -0.64 -0.32c-3.29,0.5 -6.56,1.02 -9.85,1.54l7 0z"/>
   <path class="fil0" d="M6020.82 7427.95l3.11 1.07 6.53 0c-2.97,-0.5 -5.95,-0.99 -8.96,-1.45l-0.69 0.38z"/>
   <path class="fil0" d="M7538.27 7689.43c446.15,75.45 807.32,136.55 1058.11,178.98 124.42,20.03 221.21,35.62 288.04,46.4 32.32,4.81 57.21,8.51 75.05,11.14 16.94,2.33 25.65,3.23 25.73,2.68 0.09,-0.58 -8.45,-2.59 -25.21,-6 -17.75,-3.39 -42.46,-8.1 -74.59,-14.19 -66.69,-11.9 -163.24,-29.06 -287.31,-51.16 -8.3,-1.4 -17.02,-2.88 -25.56,-4.34 -249.51,-42.38 -601.09,-102.13 -1032.43,-175.43 -362.59,-59.69 -781,-128.56 -1241.14,-204.28 110.37,19.23 218.24,38.06 323.6,56.45 333.27,58.14 640.6,111.75 915.7,159.75z"/>
   <polygon class="fil0" points="6007.73,7422.4 6008.78,7423.22 6008.08,7422.46 "/>
   <path class="fil0" d="M6028.51 7426.05l-2.16 -0.37 -0.93 -0.18 -3.91 2.07c3.01,0.46 5.98,0.96 8.96,1.45l0.2 0.03 3.44 0.58c89.68,14.75 178.07,29.3 264.87,43.6 -81.67,-14.25 -164.75,-28.74 -248.95,-43.46l-4.44 -0.76c-5.65,-0.99 -11.36,-1.98 -17.08,-2.97z"/>
   <path class="fil0" d="M6026.15 7429.81l-2.21 -0.78 -3.11 -1.07 -1.52 0.78 1.31 1.92 0.17 0.02 5.57 1.92c3.82,1.28 7.63,2.59 11.46,3.87 81.19,27.66 161.31,54.97 240.06,81.81 -60.57,-21.27 -121.91,-42.84 -183.93,-64.65 -15.33,-5.39 -30.75,-10.81 -46.2,-16.23 -5.59,-1.98 -11.22,-3.97 -16.81,-5.92l-4.78 -1.69z"/>
   <path class="fil0" d="M7479.14 7940.49c429.28,148.35 776.78,268.46 1018.12,351.87 119.82,40.37 213.08,71.78 277.49,93.47 31.19,10.08 55.2,17.84 72.43,23.4 16.41,5.11 24.86,7.44 25.03,6.88 0.17,-0.55 -7.96,-3.99 -24.02,-10.11 -16.99,-6.3 -40.71,-15.04 -71.5,-26.4 -64.06,-22.77 -156.83,-55.72 -276.06,-98.11 -238.2,-82.53 -580.01,-200.98 -1001.65,-347.09 -5.43,-1.87 -10.73,-3.7 -16.21,-5.59 -16,-5.49 -32.38,-11.05 -48.64,-16.59 -340.39,-115.97 -729.67,-248.61 -1156.26,-393.92 445.6,156.6 850.59,298.94 1201.27,422.19z"/>
   <path class="fil0" d="M8336.15 8694.03c112.29,59.69 199.7,106.18 260,138.23 29.32,15.16 51.87,26.78 68.03,35.15 15.42,7.72 23.43,11.45 23.69,10.93 0.26,-0.5 -7.29,-5.22 -22.21,-13.9 -15.86,-9.01 -37.98,-21.57 -66.69,-37.89 -59.86,-33.05 -146.54,-80.94 -257.96,-142.5 -225.73,-122.44 -550.82,-298.79 -952.4,-516.65 -319.92,-171.49 -688.14,-368.83 -1092.56,-585.58 -9.33,-5.01 -18.56,-9.96 -27.92,-14.98 76.77,42.08 152.07,83.36 226.19,123.98 325.02,178.14 623.76,341.85 889.06,487.25 401.71,217.54 726.94,393.66 952.76,515.95z"/>
   <path class="fil0" d="M6021.22 7431.53l1.9 2.79 0.26 0.26 4.43 3.47 2.48 1.31c5.45,2.91 10.93,5.86 16.38,8.77 74.9,40.17 148.81,79.77 221.47,118.71 -76.63,-41.99 -154.64,-84.76 -233.77,-128.12 -4.37,-2.39 -8.77,-4.81 -13.14,-7.2z"/>
   <polygon class="fil0" points="6008.78,7427.83 6009.68,7427.53 6009.39,7427.3 6008.14,7427.51 "/>
   <path class="fil0" d="M8119.57 9060.04c102.03,77.44 181.42,137.68 236.25,179.3 26.69,19.75 47.24,34.97 61.96,45.87 14.04,10.2 21.42,15.18 21.74,14.72 0.31,-0.47 -6.42,-6.35 -19.88,-17.4 -14.32,-11.48 -34.28,-27.54 -60.22,-48.38 -54.2,-42.5 -132.72,-104.02 -233.6,-183.09 -204.77,-158.05 -499.64,-385.64 -863.89,-666.81 -292.2,-223.25 -629.21,-480.72 -999,-763.22 -2.78,-2.12 -5.54,-4.25 -8.34,-6.35 22.73,17.7 45.84,35.67 68.31,53.19 343.94,267.82 657.8,512.23 932.32,726 364.43,280.87 659.43,508.26 864.33,666.17z"/>
   <polygon class="fil0" points="6018.37,7434.15 6017.85,7433.08 6017.73,7433.69 "/>
   <path class="fil0" d="M6023.38 7434.59c3.73,3.99 7.4,7.93 11.16,11.92l0.47 0.38c74.44,56.86 147.61,112.76 219.6,167.78 -74.32,-57.88 -149.86,-116.73 -226.8,-176.62l-4.43 -3.47z"/>
   <polygon class="fil0" points="6010.96,7427.1 6010.96,7427.04 6009.39,7427.3 6009.68,7427.53 "/>
   <path class="fil0" d="M7853.71 9383.14c89.33,93.17 158.85,165.69 206.84,215.76 23.43,23.9 41.47,42.29 54.41,55.47 12.39,12.35 18.92,18.5 19.32,18.09 0.38,-0.4 -5.42,-7.31 -17.08,-20.43 -12.44,-13.69 -29.82,-32.78 -52.35,-57.62 -47.27,-50.83 -115.7,-124.45 -203.66,-219.06 -178.9,-189.62 -436.51,-462.65 -754.71,-799.94 -256.68,-269.42 -552.85,-580.31 -877.87,-921.45 322.05,344.23 615.54,657.94 869.86,929.78 318.43,337.06 576.23,609.92 755.23,799.39z"/>
   <path class="fil0" d="M6032.53 7448.14c66.48,69.8 131.82,138.38 196.08,205.83 -63.61,-68 -128.29,-137.13 -194.07,-207.46 -3.76,-3.99 -7.43,-7.93 -11.16,-11.92l-0.26 -0.26c3.14,4.63 6.26,9.19 9.41,13.81z"/>
   <path class="fil0" d="M6915.44 8745.77c264.7,385.03 478.97,696.71 627.76,913.14 74.47,106.68 132.41,189.65 172.43,246.95 19.61,27.42 34.71,48.55 45.55,63.67 10.4,14.23 15.94,21.36 16.37,21.05 0.44,-0.36 -4.22,-8.13 -13.81,-23 -10.26,-15.56 -24.57,-37.27 -43.19,-65.48 -39.14,-57.95 -95.86,-141.85 -168.75,-249.69 -67.24,-97.93 -147.94,-215.53 -240.54,-350.41 -112.15,-163.36 -241.78,-352.18 -386.63,-563.19 -214.45,-309.21 -462.07,-666.2 -733.82,-1057.99 24.43,35.9 48.85,71.78 72.87,107.08 239.86,352.5 459.27,674.97 651.76,957.88z"/>
   <path class="fil0" d="M6023.12 7434.32l-1.9 -2.79 -0.55 -0.82 -0.06 -0.06 -1.31 -1.92 -0.55 0.29c1.9,3.93 3.76,7.84 5.63,11.77 56.46,81.41 111.92,161.35 166.44,240.02 -51.4,-75.6 -103.66,-152.4 -156.82,-230.54l-1.45 -2.13c-3.15,-4.63 -6.27,-9.18 -9.41,-13.81z"/>
   <path class="fil0" d="M6024.37 7440.79c-1.87,-3.93 -3.73,-7.84 -5.63,-11.77l-0.29 0.15 -0.61 3.91 0.52 1.07 1.92 3.93c1.69,3.53 3.41,7.03 5.11,10.53 40.56,83.35 80.62,165.57 119.9,246.28 -36.38,-76.45 -73.39,-154.21 -110.9,-232.98 -2.77,-5.83 -5.54,-11.69 -8.31,-17.52l-1.72 -3.59z"/>
   <path class="fil0" d="M6708.05 8877.38c204.18,423.77 369.47,766.84 484.27,1005.06 57.68,117.57 102.59,209.06 133.57,272.25 15.33,30.31 27.11,53.65 35.56,70.39 8.16,15.76 12.59,23.69 13.09,23.43 0.5,-0.26 -3,-8.72 -10.23,-24.98 -7.82,-17.05 -18.75,-40.85 -32.91,-71.75 -30.05,-63.68 -73.59,-155.9 -129.52,-274.4 -53.92,-112.09 -119.12,-247.66 -194.11,-403.63 -84.49,-175.66 -181.45,-377.29 -289.44,-601.82 -167.4,-343.85 -360.58,-740.63 -573.04,-1177.04 17.19,36.17 34.27,72.02 51.2,107.63 188.57,396.17 360.73,757.94 511.56,1074.86z"/>
   <polygon class="fil0" points="6012.86,7416.58 6011.87,7414.54 6011.93,7415 6013.53,7420.3 6013.53,7418.01 "/>
   <path class="fil0" d="M6021.66 7447.41c-1.31,-4.43 -2.65,-8.89 -3.99,-13.32l-0.88 5.59 1.72 5.54c1.81,5.88 3.64,11.8 5.48,17.65 5.8,18.77 11.63,37.52 17.4,56.17 19.51,62.86 38.8,125.11 57.86,186.55 -25.45,-84.66 -51.32,-170.85 -77.58,-258.2z"/>
   <path class="fil0" d="M6808.25 10047.17c39.37,125.64 70.04,223.43 91.2,290.92 10.57,32.48 18.74,57.48 24.57,75.37 5.71,16.94 8.91,25.5 9.44,25.33 0.52,-0.17 -1.64,-9.1 -6.35,-26.34 -5.16,-18.17 -12.39,-43.46 -21.74,-76.34 -20.14,-67.85 -49.31,-166.12 -86.82,-292.41 -77.53,-254.29 -189.16,-620.53 -327.04,-1072.91 -114.51,-369.33 -246.76,-795.9 -392.25,-1265.19 141.37,470.69 269.91,898.51 381.18,1268.94 138.21,452.24 250.12,818.38 327.82,1072.62z"/>
   <path class="fil0" d="M6011.93 7415c0.44,2.97 0.84,5.95 1.28,8.92l0.21 -0.06 0.12 -0.21 0 -3.35 -1.6 -5.3z"/>
   <path class="fil0" d="M6016.24 7462.1c13.55,89.89 26.9,178.54 40.02,265.68 -13.06,-92.24 -26.38,-186.21 -39.9,-281.54 -0.02,5.28 -0.06,10.58 -0.12,15.85z"/>
   <path class="fil0" d="M6450.88 10448.77c5.59,33.8 9.88,59.82 12.97,78.48 3.11,17.65 4.98,26.66 5.5,26.57 0.53,-0.08 -0.26,-9.27 -2.33,-27.1 -2.39,-18.75 -5.71,-44.94 -10.05,-78.95 -9.73,-70.34 -23.87,-172.23 -42.03,-303.13 -38.47,-263.95 -93.91,-644.1 -162.36,-1113.65 -49.67,-329.69 -105.96,-703.42 -167.4,-1111.39 -9.53,-63.15 -19.15,-127.04 -28.91,-191.83 68.57,483.84 130.9,923.75 184.94,1305.06 2.83,19.15 5.57,37.92 8.34,56.77 64.96,443.3 117.74,803.59 154.85,1056.75 20.08,130.59 35.7,232.22 46.49,302.41z"/>
   <polygon class="fil0" points="6012.83,7439.51 6013.09,7441.17 6013.56,7444.24 6013.56,7437.3 "/>
   <polygon class="fil0" points="6011.99,7433.86 6012.05,7433.66 6011.99,7433.75 "/>
   <polygon class="fil0" points="6011.14,7427.01 6010.96,7427.04 6010.96,7427.1 "/>
   <path class="fil0" d="M6016.39 7442.2c-0.93,5.97 -1.87,11.98 -2.8,17.92 0.12,106.85 0.23,211.77 0.35,314.74 0.73,-99.39 1.49,-200.57 2.25,-303.6 0.02,-3.03 0.02,-6.09 0.06,-9.15 0.06,-5.27 0.09,-10.57 0.12,-15.85l0.03 -4.05z"/>
   <path class="fil0" d="M6001.38 10177.28c0.52,132.28 0.93,235.22 1.22,306.31 0.5,34.3 0.88,60.71 1.16,79.65 0.44,17.95 0.93,27.14 1.45,27.14 0.53,0 1.08,-9.19 1.64,-27.14 0.38,-18.91 0.93,-45.35 1.66,-79.65 0.73,-71.09 1.78,-174.03 3.12,-306.31 0.9,-267.04 2.18,-651.6 3.82,-1126.63 -0.44,-373.96 -0.97,-803.88 -1.52,-1275.79 -3.47,471.92 -6.64,901.83 -9.39,1275.76 -1.34,475.04 -2.45,859.61 -3.17,1126.66z"/>
   <path class="fil0" d="M6013.56 7437.3l0 6.94c0.64,-4.37 1.29,-8.72 1.92,-13.09l-1.92 6.15z"/>
   <path class="fil0" d="M5766.85 9029.25c-71.5,469.06 -129.38,848.8 -169.57,1112.47 -19,130.77 -33.75,232.54 -43.95,302.81 -4.54,33.98 -8.07,60.14 -10.55,78.9 -2.21,17.8 -3.06,26.96 -2.54,27.05 0.55,0.12 2.48,-8.89 5.68,-26.53 3.21,-18.62 7.67,-44.62 13.5,-78.39 11.22,-70.1 27.51,-171.6 48.44,-302.06 0.67,-4.49 1.43,-9.29 2.12,-13.87 40.28,-263.03 97.61,-637.46 168.2,-1098.45 56.54,-381.16 121.77,-820.99 193.49,-1304.68 -18.33,116.67 -36.26,230.69 -53.77,342.05 -54.96,349.6 -105.67,672.05 -151.05,960.71z"/>
   <polygon class="fil0" points="6019.85,7420.13 6019.1,7421.21 6019.83,7420.45 "/>
   <path class="fil0" d="M6016.39 7442.2l0.4 -2.51 0.88 -5.59 0.06 -0.4 0.12 -0.61 0.61 -3.91 -1.43 0.76 -1.51 1.13 -0.03 0.09c-0.64,4.37 -1.28,8.72 -1.92,13.09l0 0 -0.52 3.47c-13.99,94.36 -27.81,187.43 -41.36,278.8 13.52,-85.95 27.28,-173.41 41.21,-262.07l0.7 -4.31c0.93,-5.94 1.87,-11.95 2.8,-17.92z"/>
   <path class="fil0" d="M6012.83 7439.51l0.73 -2.21 1.92 -6.15 0.03 -0.09 -3.47 2.59 -0.06 0.21 -1.78 5.86c-1.22,3.99 -2.48,7.99 -3.7,11.95 -26.32,85.63 -52.32,170.12 -77.85,253.13 19.94,-62.86 40.16,-126.58 60.59,-190.96 5.42,-17.08 10.87,-34.28 16.35,-51.5 1.87,-5.88 3.73,-11.8 5.63,-17.71l1.6 -5.11z"/>
   <path class="fil0" d="M5528.01 8967.27c-140.86,451.36 -254.88,816.76 -334.06,1070.48 -38.33,126.04 -68.14,224.08 -88.71,291.81 -9.59,32.79 -16.96,58.03 -22.24,76.16 -4.84,17.23 -7.06,26.15 -6.53,26.32 0.52,0.17 3.78,-8.37 9.62,-25.24 5.97,-17.9 14.28,-42.81 25.07,-75.2 21.62,-67.37 52.92,-164.9 93.15,-290.25 77.61,-248.11 188.71,-603.19 325.63,-1040.77 3.07,-9.85 6.1,-19.53 9.21,-29.47 8.66,-28.18 17.43,-56.68 26.29,-85.51 107.52,-349.48 229.75,-746.9 363.24,-1180.81 -148.61,468.3 -283.69,893.94 -400.65,1262.48z"/>
   <path class="fil0" d="M4811.74 9868.66c-56.72,118.09 -100.87,209.99 -131.36,273.43 -14.37,30.81 -25.44,54.53 -33.37,71.52 -7.34,16.21 -10.87,24.64 -10.4,24.9 0.5,0.26 4.95,-7.64 13.23,-23.35 8.57,-16.67 20.49,-39.93 36,-70.12 31.42,-62.92 76.92,-154.09 135.37,-271.25 116.35,-237.39 283.91,-579.23 490.86,-1001.54 163.12,-336.86 350.91,-724.66 557.17,-1150.61 4.52,-9.33 9.01,-18.56 13.55,-27.95 -37.66,76.04 -74.67,150.74 -111.07,224.3 -171.92,347.18 -329.78,666.02 -469.79,948.78 -206.7,422.43 -374.02,764.41 -490.19,1001.89z"/>
   <path class="fil0" d="M6011.23 7434.3l-2.71 2.04 -0.21 0.2 -3.26 4.63 -1.31 2.69c-2.78,5.74 -5.54,11.48 -8.31,17.17 -38.09,78.69 -75.69,156.33 -112.65,232.66 39.85,-80.47 80.44,-162.46 121.59,-245.58 2.27,-4.58 4.54,-9.21 6.85,-13.81z"/>
   <path class="fil0" d="M4463.42 9641.21c-73.62,107.31 -130.89,190.81 -170.4,248.46 -18.8,28.06 -33.26,49.7 -43.64,65.17 -9.67,14.81 -14.39,22.56 -13.95,22.88 0.44,0.36 6.03,-6.74 16.52,-20.9 10.93,-15.06 26.17,-36.08 45.96,-63.36 40.4,-57 98.89,-139.57 174.05,-245.66 150.21,-215.35 366.52,-525.49 633.76,-908.57 212.08,-307.18 456.67,-661.47 725.04,-1050.18 2.21,-3.24 4.46,-6.5 6.71,-9.73 -18.37,26.08 -37.02,52.6 -55.15,78.37 -252.92,359.39 -483.72,687.39 -685.75,974.49 -266.97,383.29 -483.08,693.56 -633.15,909.03z"/>
   <path class="fil0" d="M6008.31 7436.54c-3.82,3.94 -7.54,7.82 -11.33,11.75l-0.44 0.61c-53.92,78.11 -106.9,154.88 -159.07,230.42 54.91,-78.06 110.75,-157.36 167.58,-238.15l3.26 -4.63z"/>
   <polygon class="fil0" points="6010.88,7429.9 6009.3,7430.39 6008.67,7431.33 6010.35,7430.43 "/>
   <path class="fil0" d="M4155.86 9361.95c-88.57,93.97 -157.5,167.09 -205.09,217.58 -22.7,24.64 -40.19,43.62 -52.73,57.23 -11.75,13.04 -17.57,19.91 -17.19,20.32 0.35,0.37 6.93,-5.68 19.41,-17.96 13,-13.09 31.19,-31.36 54.79,-55.09 48.3,-49.69 118.31,-121.7 208.24,-214.24 180.27,-188.16 439.83,-459.15 760.49,-793.88 256.01,-269.91 551.45,-581.36 875.66,-923.14 -327.15,338.67 -625.28,647.28 -883.62,914.75 -320.43,334.97 -579.81,606.13 -759.96,794.43z"/>
   <path class="fil0" d="M5995.35 7446.25c-66.42,70.03 -131.71,138.84 -195.91,206.52 64.76,-67 130.57,-135.14 197.54,-204.48 3.79,-3.93 7.52,-7.81 11.33,-11.75l0.21 -0.2c-4.37,3.29 -8.77,6.61 -13.17,9.91z"/>
   <polygon class="fil0" points="6010.88,7429.9 6010.35,7430.43 6012.16,7429.46 "/>
   <path class="fil0" d="M4761.58 8375.19c-366.06,278.51 -662.44,503.95 -868.23,660.51 -101.39,78.34 -180.32,139.31 -234.79,181.4 -26.08,20.66 -46.17,36.55 -60.56,47.94 -13.52,10.93 -20.29,16.79 -19.97,17.26 0.29,0.46 7.69,-4.49 21.83,-14.57 14.81,-10.79 35.44,-25.85 62.26,-45.44 55.11,-41.21 134.88,-100.87 237.45,-177.55 92.03,-69.93 202.29,-153.68 328.66,-249.69 156.37,-118.77 337.44,-256.33 540,-410.19 294.1,-225.72 633.7,-486.37 1006.41,-772.42 -34.24,25.79 -68.14,51.29 -101.81,76.65 -335.43,252.56 -642.06,483.43 -911.24,686.1z"/>
   <path class="fil0" d="M6008.52 7436.34l2.71 -2.04 0.76 -0.55 0.06 -0.09 3.47 -2.59 1.51 -1.13c-4.89,2.59 -9.79,5.16 -14.66,7.72 -77.26,59.29 -153.13,117.51 -227.74,174.79 71.69,-53.98 144.7,-108.95 218.79,-164.73l1.92 -1.46c4.4,-3.3 8.8,-6.62 13.17,-9.91z"/>
   <path class="fil0" d="M6002.37 7437.65c4.87,-2.56 9.77,-5.12 14.66,-7.72l1.43 -0.76 0.29 -0.15 0.55 -0.29 1.52 -0.78 0.69 -0.38 3.91 -2.07 1.96 -1.02 -0.44 0.06c-4.96,1.66 -9.86,3.3 -14.78,4.92l-1.81 0.97 -1.69 0.9 -3.68 1.98c-3.35,1.81 -6.7,3.61 -10.05,5.42 -79.04,42.61 -157.04,84.64 -233.56,125.87 72.48,-38.18 146.25,-77.06 220.97,-116.4 5.51,-2.92 11.1,-5.87 16.65,-8.77l3.38 -1.78z"/>
   <path class="fil0" d="M4636.25 8157.27c-402.98,214.92 -729.23,388.91 -955.78,509.75 -111.8,60.71 -198.8,107.95 -258.86,140.6 -28.82,16.11 -51.04,28.5 -66.92,37.39 -15.01,8.59 -22.56,13.26 -22.3,13.78 0.23,0.5 8.28,-3.15 23.73,-10.75 16.23,-8.25 38.88,-19.74 68.28,-34.66 60.53,-31.63 148.23,-77.44 260.93,-136.34 104.57,-55.67 230.63,-122.76 375.42,-199.85 168.98,-89.94 363.58,-193.52 580.71,-309.11 327.12,-176.27 704.64,-379.7 1119.9,-603.48 -35.36,18.63 -70.36,37.04 -105.13,55.38 -375.89,198.01 -719.19,378.86 -1019.99,537.29z"/>
   <path class="fil0" d="M3523.53 8263.38c-119.46,41.47 -212.46,73.77 -276.67,96.07 -30.87,11.14 -54.65,19.73 -71.69,25.88 -16.09,6 -24.25,9.35 -24.07,9.91 0.17,0.55 8.65,-1.72 25.09,-6.68 17.23,-5.44 41.3,-13.03 72.57,-22.91 64.53,-21.22 157.99,-51.97 278.1,-91.46 241.87,-81.67 590.16,-199.24 1020.4,-344.49 351.49,-120.69 757.51,-260.12 1204.19,-413.48 -448.02,149.05 -855.2,284.55 -1207.74,401.83 -430.12,145.61 -778.35,263.47 -1020.16,345.33z"/>
   <path class="fil0" d="M5996.16 7434.76c4.4,-1.45 8.77,-2.92 13.14,-4.37l1.58 -0.5 1.28 -0.44c4.92,-1.63 9.82,-3.26 14.78,-4.92 -5.28,0.84 -10.53,1.66 -15.8,2.48l-0.18 0.08 -1.28 0.44 -0.9 0.3 -3.49 1.22 -1.73 0.58 -5.36 1.84c-5.57,1.92 -11.16,3.84 -16.7,5.74 -17.11,5.88 -34.19,11.74 -51.18,17.57 -60.3,20.69 -119.99,41.21 -178.89,61.43 80.24,-26.73 161.93,-53.89 244.72,-81.46z"/>
   <path class="fil0" d="M3141.32 7887.94c-32.18,5.88 -56.92,10.43 -74.67,13.7 -16.79,3.26 -25.35,5.21 -25.27,5.77 0.06,0.59 8.81,-0.26 25.73,-2.45 17.87,-2.54 42.79,-6.06 75.14,-10.61 66.89,-10.32 163.79,-25.21 288.3,-44.39 251.08,-40.63 612.65,-99.16 1059.27,-171.4 313.74,-52.46 669.4,-111.92 1057.64,-176.79 59.95,-10.03 120.6,-20.17 182.07,-30.43 -460.25,72.4 -878.75,138.23 -1241.46,195.27 -17.02,2.77 -33.67,5.48 -50.4,8.22 -423.33,68.84 -767.27,124.77 -1008.76,164.03 -124.21,21.19 -220.89,37.68 -287.6,49.08z"/>
   <polygon class="fil0" points="6573.83,4100.61 6486.8,4078.37 6652.58,3429.93 6739.61,3452.16 "/>
   <path class="fil0" d="M6875.02 3556.42l-408.58 -104.45c-80.86,-20.66 -129.64,-102.94 -108.98,-183.76 20.66,-80.85 102.97,-129.61 183.79,-108.95l408.58 104.46c80.85,20.66 129.61,102.94 108.95,183.75 -20.66,80.85 -102.94,129.61 -183.76,108.95z"/>
   <path class="fil1" d="M6899.01 3564.79c-1.02,4.05 -104.34,-18.83 -230.69,-51.16 -126.4,-32.29 -227.99,-61.78 -226.98,-65.84 1.05,-4.05 104.34,18.83 230.75,51.15 126.34,32.29 227.97,61.79 226.92,65.84z"/>
   <path class="fil2" d="M2203.93 4194.09l-147.45 92.88c-13.97,8.8 -32.15,6.85 -43.94,-4.69l-604.49 -591.94c-27.74,-27.19 -72.78,3.3 -57.86,39.14l445.36 1071.52c9.17,22.06 37,29.06 55.48,13.93l126.3 -103.17c13.95,-11.43 34.22,-10.61 47.23,1.87l695.55 666.63c28.45,27.25 73.57,-4.93 57.07,-40.69l-521.9 -1130.24c-9.01,-19.56 -33.17,-26.7 -51.35,-15.24z"/>
   <path class="fil2" d="M754.98 8573.84l39.88 169.66c3.77,16.05 -3.98,32.61 -18.74,40.01l-756.37 379.12c-34.72,17.4 -20.54,69.88 18.22,67.44l1158.12 -72.66c23.83,-1.49 39.48,-25.53 31.22,-47.94l-56.51 -152.98c-6.25,-16.91 1.11,-35.82 17.13,-44.07l856.63 -440.94c35.02,-18.04 19.25,-71.17 -19.94,-67.18l-1238.53 125.91c-21.42,2.19 -36.04,22.68 -31.1,43.63z"/>
   <path class="fil0" d="M945.64 6031.62l-57.61 130.54c-5.45,12.36 -18.7,19.35 -31.98,16.9l-681.22 -125.3c-31.27,-5.77 -47.9,35.52 -21.37,53.05l792.62 523.7c16.32,10.78 38.4,2.8 44.05,-15.94l38.53 -127.82c4.26,-14.14 18.38,-22.85 32.91,-20.35l777.24 134.33c31.77,5.51 47.69,-36.99 20.12,-53.72l-871.44 -528.58c-15.05,-9.12 -34.73,-2.94 -41.84,13.18z"/>
   <path class="fil0" d="M9776.75 10998.9l129.11 -97.4c12.24,-9.21 29.2,-8.84 41.01,0.92l605.16 500.25c27.78,22.93 67.03,-8.75 50.45,-40.74l-495.44 -956.14c-10.19,-19.67 -36.46,-23.96 -52.4,-8.54l-108.74 105.28c-12,11.62 -30.81,12.47 -43.83,1.95l-695.2 -562.21c-28.41,-22.96 -67.65,10.32 -49.57,42.08l570.78 1004.46c9.85,17.37 32.72,22.12 48.67,10.09z"/>
   <path class="fil0" d="M11199.53 7006.66l-27.11 -159.42c-2.59,-15.13 5.57,-30.02 19.64,-36l722.48 -307.42c33.16,-14.11 23.08,-63.54 -12.97,-63.54l-1076.85 0.36c-22.15,0.02 -38.06,21.39 -31.67,42.6l43.48 144.97c4.81,16.04 -3.09,33.11 -18.42,39.81l-818.89 358.88c-33.49,14.66 -21.98,64.8 14.57,63.37l1154.41 -45c19.97,-0.78 34.68,-18.94 31.34,-38.61z"/>
   <path class="fil2" d="M11058.44 8956.6l32.61 -128.3c3.09,-12.18 14.11,-20.6 26.67,-20.43l642.71 9.65c29.49,0.44 38.35,-39.9 11.39,-51.85l-806.09 -357.06c-16.59,-7.34 -35.59,3.39 -37.86,21.36l-15.56 122.97c-1.72,13.58 -13.28,23.73 -26.98,23.66l-731.98 -3.08c-29.93,-0.12 -37.91,41.21 -10.11,52.25l878.96 349.33c15.22,6.06 32.24,-2.65 36.26,-18.51z"/>
   <path class="fil3" d="M5888.12 2900.98c-1.75,1.92 -32.18,-25.5 -85.28,-64.38 -53.01,-38.94 -130.14,-87.72 -221.8,-128.5 -91.8,-40.54 -179.74,-64.94 -244.18,-78.08 -64.5,-13.26 -105.24,-17.37 -104.98,-19.96 0.09,-1.05 10.32,-0.93 28.88,0.14 18.54,0.88 45.27,3.91 78.06,9.27 65.57,10.55 155.31,33.63 248.38,74.76 92.94,41.36 170.29,92.3 222.11,133.8 25.99,20.72 46.19,38.5 59.31,51.64 13.23,13.03 20.2,20.55 19.5,21.31z"/>
   <path class="fil3" d="M5980.95 2791.95c-1.75,1.92 -32.18,-25.54 -85.31,-64.42 -53.01,-38.94 -130.1,-87.72 -221.77,-128.5 -91.8,-40.56 -179.74,-64.94 -244.18,-78.08 -64.5,-13.26 -105.24,-17.37 -105,-19.96 0.08,-1.02 10.34,-0.93 28.88,0.14 18.56,0.88 45.29,3.94 78.08,9.27 65.57,10.55 155.28,33.63 248.38,74.76 92.94,41.32 170.26,92.33 222.11,133.8 25.97,20.72 46.19,38.5 59.31,51.64 13.23,13.03 20.19,20.55 19.5,21.34z"/>
   <path class="fil3" d="M2960.74 3244.51c2.1,1.49 -21.02,35 -52.69,92.24 -31.8,57.13 -70.48,139.11 -100.44,234.24 -29.85,95.21 -45.06,184.58 -52.08,249.6 -7.06,65.05 -7.72,105.74 -10.29,105.74 -1.05,0 -1.86,-10.17 -2.41,-28.59 -0.76,-18.45 -0.18,-45.17 2.04,-78.1 4.31,-65.84 18.01,-156.75 48.26,-253.18 30.34,-96.35 71.14,-178.78 105.62,-235.06 17.14,-28.21 32.15,-50.36 43.43,-64.96 11.16,-14.69 17.69,-22.53 18.56,-21.92z"/>
   <path class="fil3" d="M2822.91 3172.46c2.12,1.49 -20.98,35 -52.67,92.25 -31.8,57.15 -70.47,139.13 -100.43,234.27 -29.85,95.19 -45.06,184.57 -52.09,249.57 -7.05,65.05 -7.72,105.74 -10.29,105.74 -1.05,0 -1.87,-10.17 -2.42,-28.59 -0.75,-18.45 -0.17,-45.17 2.04,-78.1 4.31,-65.84 18.01,-156.74 48.26,-253.18 30.34,-96.35 71.15,-178.77 105.62,-235.05 17.13,-28.21 32.11,-50.36 43.42,-64.97 11.16,-14.69 17.7,-22.5 18.54,-21.92z"/>
   <path class="fil3" d="M10321.3 5608.84c-2.54,-0.5 4.96,-40.77 10.32,-106.38 5.48,-65.55 6.76,-156.77 -6.39,-256.25 -13.4,-99.44 -38.58,-187.17 -61.05,-248.95 -22.41,-61.9 -40.19,-98.8 -37.86,-99.94 0.93,-0.46 6.2,8.31 14.98,24.69 8.95,16.27 20.32,40.66 32.91,71.4 25.27,61.41 52.49,149.96 66.1,250.8 13.32,100.87 10.29,193.44 2.02,259.33 -4.08,32.96 -8.66,59.48 -13.03,77.55 -4.17,18.1 -6.96,27.96 -7.99,27.75z"/>
   <path class="fil3" d="M10462.79 5630.96c-2.56,-0.49 4.93,-40.77 10.32,-106.38 5.48,-65.55 6.77,-156.77 -6.38,-256.24 -13.41,-99.44 -38.59,-187.14 -61.06,-248.95 -22.41,-61.9 -40.22,-98.81 -37.89,-99.94 0.93,-0.47 6.2,8.34 14.98,24.69 8.98,16.26 20.35,40.66 32.91,71.4 25.3,61.41 52.52,149.98 66.1,250.82 13.35,100.84 10.32,193.4 2.01,259.31 -4.05,32.96 -8.65,59.48 -13.02,77.55 -4.17,18.1 -6.94,27.95 -7.96,27.74z"/>
   <path class="fil3" d="M8465.82 3286.74c-0.15,2.56 -40.8,0.38 -106.18,3.29 -65.32,2.78 -155.43,12.65 -252.19,36.84 -96.76,24.31 -180.9,58.09 -239.98,86.07 -59.16,27.98 -94.19,48.67 -95.54,46.49 -0.55,-0.88 7.7,-6.88 23.14,-17.02 15.3,-10.29 38.38,-23.73 67.62,-39.09 58.4,-30.72 143.07,-66.57 241.09,-91.17 98.01,-24.51 189.59,-32.81 255.6,-32.85 33,-0.12 59.72,1.08 78.06,3.09 18.39,1.81 28.47,3.3 28.39,4.35z"/>
   <path class="fil3" d="M8387.41 3137.55c-0.17,2.54 -36.46,0.78 -94.81,3.53 -58.32,2.62 -138.7,11.54 -225.05,33.1 -86.36,21.69 -161.46,51.73 -214.28,76.59 -52.87,24.87 -84.25,43.17 -85.57,41.01 -0.55,-0.88 6.76,-6.32 20.49,-15.47 13.64,-9.27 34.21,-21.36 60.3,-35.15 52.11,-27.57 127.77,-59.69 215.38,-81.69 87.58,-21.92 169.48,-29.23 228.44,-29.11 29.52,-0.03 53.39,1.11 69.77,3 16.41,1.72 25.41,3.18 25.33,4.2z"/>
   <path class="fil3" d="M9637.09 9442.21c-0.44,-0.29 3,-6.2 9.91,-17.16 7.9,-12.15 18.13,-27.89 30.84,-47.45 13.76,-20.34 30.2,-45.46 47.59,-75.72 17.6,-30.11 39.14,-63.47 59.01,-102.62 10.38,-19.38 21.22,-39.64 32.5,-60.71 11.19,-21.17 21.13,-44.01 32.41,-67.18 23.14,-46.13 43.42,-97.37 65.8,-150.82 41.83,-108.1 81.43,-229.43 112.15,-359.68 29.53,-130.53 47.16,-256.97 56.98,-372.47 3.32,-57.88 7.58,-112.84 7,-164.43 0.02,-25.77 1.11,-50.68 0.32,-74.61 -0.91,-23.88 -1.75,-46.84 -2.57,-68.79 -0.67,-43.92 -5.42,-83.35 -8.04,-118.12 -2.36,-34.8 -6.12,-64.59 -9.57,-88.92 -2.85,-23.14 -5.12,-41.77 -6.91,-56.16 -1.4,-12.89 -1.89,-19.68 -1.36,-19.76 0.52,-0.12 2.01,6.53 4.4,19.27 2.48,14.28 5.72,32.81 9.71,55.84 4.37,24.25 9.01,54.01 12.15,88.86 3.44,34.83 8.95,74.35 10.34,118.42 1.14,22.06 2.3,45.12 3.56,69.07 1.07,24.05 0.32,49.08 0.55,74.99 1.11,51.88 -2.69,107.17 -5.66,165.4 -9.09,116.21 -26.4,243.51 -56.13,374.87 -30.87,131 -71.14,253 -113.93,361.39 -22.85,53.63 -43.69,104.98 -67.47,151.09 -11.57,23.2 -21.83,46.03 -33.37,67.15 -11.63,21.02 -22.79,41.21 -33.49,60.51 -20.55,38.99 -42.84,72.13 -61.2,101.89 -18.13,29.96 -35.35,54.68 -49.9,74.55 -13.7,18.94 -24.74,34.19 -33.25,45.93 -7.72,10.4 -11.98,15.71 -12.38,15.38z"/>
   <path class="fil3" d="M9851.02 9497.5c-0.44,-0.32 3,-6.21 9.91,-17.17 7.9,-12.15 18.13,-27.92 30.84,-47.48 13.76,-20.34 30.19,-45.46 47.56,-75.72 17.63,-30.11 39.17,-63.45 59.05,-102.62 10.38,-19.38 21.22,-39.64 32.5,-60.71 11.19,-21.12 21.12,-44.01 32.41,-67.17 23.14,-46.11 43.42,-97.38 65.8,-150.83 41.83,-108.09 81.43,-229.42 112.15,-359.64 29.53,-130.57 47.16,-257 56.98,-372.51 3.32,-57.86 7.58,-112.82 7,-164.44 0.02,-25.76 1.11,-50.68 0.32,-74.61 -0.91,-23.87 -1.75,-46.83 -2.57,-68.78 -0.67,-43.89 -5.42,-83.36 -8.05,-118.12 -2.35,-34.81 -6.11,-64.59 -9.56,-88.89 -2.85,-23.17 -5.13,-41.8 -6.91,-56.2 -1.4,-12.85 -1.89,-19.67 -1.37,-19.75 0.53,-0.09 2.02,6.53 4.4,19.26 2.48,14.32 5.72,32.85 9.71,55.85 4.37,24.25 9.01,54.03 12.15,88.89 3.44,34.81 8.95,74.35 10.34,118.42 1.14,22.03 2.3,45.08 3.56,69.08 1.07,24.01 0.32,49.05 0.55,74.96 1.11,51.87 -2.69,107.17 -5.66,165.4 -9.09,116.2 -26.4,243.51 -56.13,374.86 -30.9,131.04 -71.14,253.01 -113.93,361.43 -22.85,53.63 -43.72,104.96 -67.47,151.06 -11.57,23.2 -21.83,46.05 -33.37,67.15 -11.63,21.01 -22.79,41.21 -33.49,60.53 -20.55,38.99 -42.84,72.11 -61.2,101.89 -18.13,29.93 -35.35,54.68 -49.9,74.55 -13.7,18.92 -24.74,34.16 -33.25,45.93 -7.72,10.38 -11.98,15.68 -12.38,15.39z"/>
   <path class="fil3" d="M2334.41 5930.89c0.4,0.29 -3.03,6.2 -9.94,17.17 -7.9,12.15 -18.13,27.89 -30.81,47.45 -13.79,20.34 -30.22,45.46 -47.59,75.75 -17.61,30.07 -39.17,63.45 -59.05,102.62 -10.38,19.35 -21.19,39.61 -32.48,60.68 -11.19,21.16 -21.15,44.01 -32.42,67.21 -23.15,46.11 -43.44,97.35 -65.82,150.82 -41.82,108.07 -81.43,229.4 -112.13,359.65 -29.54,130.53 -47.17,256.99 -56.98,372.49 -3.34,57.86 -7.58,112.82 -7.01,164.41 -0.03,25.79 -1.12,50.68 -0.33,74.61 0.9,23.89 1.76,46.83 2.58,68.81 0.68,43.89 5.43,83.33 8.06,118.09 2.33,34.83 6.1,64.61 9.55,88.93 2.83,23.14 5.12,41.79 6.88,56.16 1.41,12.88 1.9,19.7 1.39,19.79 -0.52,0.09 -2.02,-6.56 -4.4,-19.29 -2.49,-14.28 -5.72,-32.82 -9.72,-55.85 -4.35,-24.25 -8.99,-54.01 -12.14,-88.86 -3.44,-34.8 -8.95,-74.35 -10.33,-118.41 -1.14,-22.07 -2.34,-45.09 -3.56,-69.08 -1.11,-24.04 -0.32,-49.08 -0.55,-74.99 -1.13,-51.87 2.66,-107.17 5.63,-165.37 9.1,-116.22 26.41,-243.53 56.14,-374.85 30.88,-131.04 71.14,-253.01 113.93,-361.43 22.86,-53.63 43.7,-104.98 67.46,-151.09 11.56,-23.17 21.85,-46.02 33.37,-67.15 11.62,-20.98 22.79,-41.18 33.49,-60.51 20.58,-38.99 42.87,-72.13 61.2,-101.89 18.13,-29.96 35.35,-54.68 49.92,-74.55 13.67,-18.94 24.72,-34.19 33.23,-45.93 7.72,-10.41 11.98,-15.71 12.42,-15.39z"/>
   <path class="fil3" d="M2120.48 5875.61c0.42,0.31 -3.01,6.24 -9.93,17.19 -7.89,12.15 -18.12,27.89 -30.82,47.45 -13.77,20.35 -30.23,45.47 -47.6,75.72 -17.6,30.11 -39.16,63.48 -59.03,102.63 -10.37,19.38 -21.21,39.64 -32.48,60.71 -11.19,21.16 -21.17,44.01 -32.43,67.18 -23.14,46.13 -43.43,97.37 -65.81,150.82 -41.83,108.09 -81.43,229.43 -112.14,359.68 -29.54,130.54 -47.16,256.97 -56.98,372.46 -3.32,57.88 -7.57,112.85 -6.99,164.44 -0.05,25.76 -1.12,50.68 -0.33,74.61 0.88,23.87 1.75,46.83 2.57,68.79 0.69,43.92 5.44,83.35 8.06,118.12 2.33,34.8 6.11,64.58 9.56,88.92 2.83,23.14 5.12,41.76 6.89,56.16 1.4,12.88 1.89,19.67 1.38,19.76 -0.51,0.08 -2.02,-6.53 -4.41,-19.27 -2.48,-14.31 -5.7,-32.81 -9.71,-55.84 -4.36,-24.25 -9.01,-54.01 -12.14,-88.87 -3.45,-34.82 -8.96,-74.35 -10.33,-118.41 -1.14,-22.06 -2.34,-45.12 -3.57,-69.1 -1.1,-24.02 -0.31,-49.05 -0.55,-74.97 -1.12,-51.87 2.65,-107.16 5.63,-165.4 9.1,-116.2 26.42,-243.49 56.14,-374.85 30.89,-131 71.16,-253.01 113.94,-361.4 22.85,-53.63 43.69,-104.98 67.45,-151.09 11.57,-23.2 21.85,-46.02 33.37,-67.15 11.64,-21.01 22.82,-41.21 33.51,-60.5 20.56,-38.99 42.85,-72.13 61.21,-101.89 18.12,-29.96 35.34,-54.68 49.91,-74.55 13.69,-18.94 24.71,-34.19 33.22,-45.93 7.72,-10.41 11.99,-15.71 12.42,-15.42z"/>
   <path class="fil3" d="M5709.7 1385.7c0.61,2.3 -41.45,14.28 -108.39,36.49 -66.92,22.15 -158.4,55.7 -256.27,100.11 -97.84,44.62 -183.23,91.55 -243.91,127.43 -60.74,35.85 -97.37,59.68 -98.74,57.71 -0.58,-0.85 7.93,-7.76 23.84,-19.56 15.85,-11.89 39.49,-28.12 69.27,-47.3 59.52,-38.38 144.73,-87.18 243.25,-132.06 98.57,-44.76 191.34,-76.94 259.39,-96.59 34.01,-9.85 61.79,-16.99 81.17,-21.12 19.36,-4.25 30.17,-6.12 30.4,-5.11z"/>
   <path class="fil3" d="M5637.85 1291.42c0.58,2.3 -41.47,14.28 -108.39,36.49 -66.94,22.15 -158.4,55.69 -256.27,100.14 -97.87,44.6 -183.26,91.51 -243.94,127.39 -60.71,35.85 -97.38,59.69 -98.72,57.74 -0.61,-0.88 7.9,-7.78 23.81,-19.59 15.85,-11.89 39.5,-28.12 69.28,-47.31 59.52,-38.38 144.73,-87.17 243.27,-132.05 98.54,-44.74 191.31,-76.94 259.36,-96.55 34.04,-9.86 61.79,-17.03 81.17,-21.17 19.35,-4.25 30.16,-6.09 30.43,-5.1z"/>
   <polygon class="fil2" points="6382.87,4069.84 6293.4,4061.82 6353.12,3395.19 6442.6,3403.21 "/>
   <path class="fil2" d="M6592.96 3484.43l-420.03 -37.66c-83.09,-7.44 -144.44,-80.85 -136.98,-163.94l0 0c7.43,-83.09 80.85,-144.41 163.93,-136.99l420.04 37.63c83.09,7.46 144.44,80.85 136.98,163.94 -7.43,83.12 -80.85,144.44 -163.93,137.01z"/>
   <path class="fil3" d="M6617.99 3488.83c-0.38,4.17 -106,-1.89 -235.93,-13.52 -129.93,-11.66 -234.93,-24.45 -234.55,-28.64 0.38,-4.17 105.96,1.89 235.92,13.52 129.9,11.66 234.94,24.48 234.56,28.64z"/>
   <path class="fil2" d="M8321.22 2105.87c200.32,115.27 310.63,178.75 439.04,372.06 80.7,121.51 82.91,350.36 85.28,592.61 1.58,161.93 3.21,329.31 29.73,444.02 52.61,227.6 268.29,270.96 277.46,272.68l-30.9 172.13 -1.02 -0.2c-24.11,-4.46 -338.23,-69.13 -415.93,-405.18 -30.81,-133.37 -32.53,-310.48 -34.19,-481.73 -1.92,-196.53 -4.08,-419.25 -56.1,-497.59 -105.62,-159.01 -186.09,-205.32 -380.54,-317.19 0,0 -305.91,-186.35 -1092.54,-338.86 -786.62,-152.52 -1350.77,-114.65 -1350.77,-114.65 -221.68,34.59 -313.43,48.93 -469.07,159.48 -76.65,54.44 -158.61,261.51 -230.91,444.25 -63.01,159.31 -128.18,324.01 -204.8,437.41 -196.61,290.9 -520.09,231.15 -534.66,228.73l33.49 -171.63 -16.73 85.8 16.2 -85.89c9.15,1.66 226.02,38.58 356.79,-154.94 65.95,-97.58 127.54,-253.24 187.11,-403.8 89.16,-225.27 173.33,-438.08 292.29,-522.51 189.18,-134.39 314.97,-154.04 543.3,-189.71 0,0 533.63,-54.68 1386.8,123.23 853.16,177.93 1170.66,351.49 1170.66,351.49z"/>
   <path class="fil3" d="M8321.25 2105.87c0,0 -6.85,-3.24 -20.32,-9.5 -13.47,-6.24 -33.58,-15.51 -60.47,-26.73 -53.68,-22.64 -134.16,-53.95 -240.48,-89.41 -212.5,-71.12 -528.69,-158.32 -933.48,-237.86 -202.41,-38.88 -427.44,-74.84 -673.16,-95.01 -122.79,-10.43 -250.7,-17.37 -383.13,-18.19 -66.19,-0.37 -133.61,0.5 -201.81,4.63 -16.96,1.23 -34.33,1.75 -50.94,4.35 -16.99,2.69 -34.07,5.42 -51.21,8.13 -34.34,5.48 -68.82,11.4 -103.41,18.13 -68.98,13.64 -138.44,31.39 -204.42,60.82 -65.89,28.94 -129.61,67.24 -188.22,111.86 -56.31,47.09 -97.26,112.14 -132.76,179.21 -35.79,67.36 -65.99,138.82 -95.8,211.3 -59.75,145 -112.67,297.23 -188.07,444.06 -19.61,36.25 -39.58,72.8 -66.51,105.59 -26.55,32.7 -58.38,61.72 -95.07,83.7 -73.62,43.89 -162.57,60.05 -249.01,48.18l8.3 -5.72c-4.98,26.47 -10.57,56.16 -16.18,85.92l-14.14 -2.71c5.16,-26.46 10.96,-56.1 16.73,-85.83l14.17 2.8c-10.35,53.19 -21.86,112.23 -33.43,171.63l-5.94 -8.58c148.46,22.5 313.01,-14.28 431.46,-118.18 59.31,-51.26 105.88,-116.6 143.65,-187.34 38.18,-70.65 70.62,-145.17 101.83,-220.77 62.99,-150.97 116.76,-308.73 195.04,-458.77 20.23,-37.1 41.68,-74.23 72.05,-105.91 15.51,-16.26 34.13,-27.45 51.41,-39.46 17.84,-11.72 36,-23 54.65,-33.58 74.61,-42.96 158.99,-67.45 243.42,-82.46 48.38,-8.97 96.76,-16.41 143.54,-23.75l0.4 -0.06 0.26 0c223.72,-10.19 444.46,0.03 661.32,18.19 216.87,18.56 429.57,48.55 637.05,86.82 207.34,38.76 409.96,84.32 605.31,141.44 97.76,28.25 193.73,59.17 287.14,94.17 93.15,35.5 184.89,72.78 269.86,122.12 83.67,49.02 169.39,95.39 241.4,159.56 36.03,31.83 67.59,68.03 95.54,106.1 13.9,19.41 27.78,37.39 39.64,59.05 10.87,21.71 17.75,44.56 22.88,67.44 19.41,91.81 21.74,183.76 24.69,273.79 1.22,90.06 2.39,178.81 3.55,266.21 1.69,87.23 4.72,173.15 14.63,256.83 9.67,83.52 28.82,164.93 66.74,236.42 74.64,144.59 218.24,237.53 362.89,269.42l-6.47 4.45c11.1,-61.52 21.16,-117.27 31.04,-172.1l4.28 6.24c-78.45,-18.16 -148.14,-60.04 -199.29,-116.55 -52.02,-56.54 -78.2,-129.57 -89.62,-199.76 -21.94,-141.5 -19.41,-276.3 -21.45,-401.59 -1.07,-125.35 -1.72,-242.2 -13.09,-348.84 -11.33,-105.95 -34.24,-204.48 -89.68,-274.17 -50.21,-72.4 -103.58,-130.37 -155.8,-173.65 -51.94,-43.65 -100.73,-74.38 -140.07,-99.01 -39.49,-24.45 -70.18,-42.22 -90.64,-54.41 -20.49,-12.12 -30.81,-18.68 -30.81,-18.68 0,0 43.19,22.76 123.05,70.47 39.64,24.25 88.84,54.62 141.36,98.16 52.81,43.14 106.93,101.25 157.76,173.71 56.45,70.27 80.35,170.62 92.03,276.79 11.86,107.17 12.89,224.19 14.38,349.54 2.41,125.18 0.37,260.06 22.47,400.04 11.54,69.34 37.07,139.69 87.7,194.58 49.51,54.64 118.3,95.56 193.73,112.82l5.19 1.19 -0.91 5.01c-9.79,54.85 -19.73,110.61 -30.68,172.16l-1.02 5.65 -5.45 -1.16c-74.9,-16.03 -147.41,-47.92 -212.29,-93.88 -65.49,-45.12 -120.45,-107.98 -159.16,-180.85 -38.97,-73.09 -58.58,-156.45 -68.46,-240.54 -10.11,-84.4 -13.26,-170.64 -15.07,-258.08 -1.31,-87.35 -2.59,-176.1 -3.93,-266.1 -3,-89.65 -5.59,-181.54 -24.69,-271.16 -4.98,-22.24 -11.75,-44.18 -21.74,-64.15 -10.46,-19.27 -25.15,-38.59 -38.58,-57.21 -27.6,-37.51 -58.5,-72.83 -93.76,-103.93 -70.36,-62.63 -155.4,-108.71 -239.37,-157.76 -83.56,-48.4 -175.07,-85.57 -267.76,-120.8 -93,-34.77 -188.69,-65.52 -286.17,-93.62 -194.77,-56.8 -397.04,-102.18 -603.97,-140.77 -207.04,-38.09 -419.28,-67.93 -635.62,-86.42 -216.2,-18.07 -436.96,-28.18 -659.02,-18.07l0.67 -0.06c-46.78,7.34 -95.11,14.75 -143.11,23.64 -83.94,14.98 -165.78,38.8 -238.78,80.79 -18.27,10.35 -36.14,21.46 -53.68,33 -17.4,12 -35.35,22.97 -49.02,37.45 -28.27,29.4 -49.66,65.95 -69.5,102.44 -77.39,148.17 -131.33,306.08 -194.46,457.31 -31.36,75.81 -63.97,150.71 -102.59,222.18 -38.12,71.4 -86.04,138.79 -147.12,191.48 -122.35,106.96 -290.96,144.53 -443.53,121.27l-7.43 -1.11 1.45 -7.46c11.63,-59.37 23.17,-118.41 33.58,-171.63l14.17 2.8c-5.8,29.69 -11.6,59.33 -16.76,85.8l-14.14 -2.71c5.63,-29.78 11.25,-59.45 16.23,-85.92l1.29 -6.67 7.05 0.96c82.05,11.33 168.98,-4.14 239.22,-46.2 35.21,-21.07 65.75,-48.9 91.4,-80.38 25.86,-31.3 45.79,-67.56 65.11,-103.29 74.85,-145.25 128,-297.48 188.02,-442.62 29.96,-72.66 60.33,-144.39 96.59,-212.38 36.05,-67.67 77.44,-133.86 136.28,-183 60.21,-45.73 124.04,-83.88 191.28,-113.37 67.12,-29.82 137.62,-47.68 207.1,-61.29 34.77,-6.7 69.42,-12.59 103.81,-18.01 17.26,-2.71 34.43,-5.42 51.53,-8.1 17.55,-2.68 34.66,-3.11 51.82,-4.34 68.6,-4.06 136.16,-4.78 202.56,-4.29 132.81,1.08 260.98,8.3 383.97,19.03 246.16,20.74 471.4,57.35 673.98,96.88 404.94,80.85 721.02,169.45 933.29,242.08 106.17,36.19 186.5,68.22 239.92,91.66 26.78,11.57 46.72,21.22 60.04,27.83 13.29,6.64 19.79,10.61 19.79,10.61z"/>
   <path class="fil2" d="M4030.16 2660.82c-175.77,60.16 -269.51,251.41 -209.35,427.18l636.52 -217.83c-60.15,-175.77 -251.4,-269.5 -427.17,-209.35z"/>
   <path class="fil4" d="M5992.61 3430.77c-20.64,-60.27 -703.47,118.85 -1525.22,400.07 -821.74,281.19 -1471.18,558.01 -1450.54,618.28 20.63,60.28 703.5,-118.83 1525.21,-400.04 821.75,-281.22 1471.19,-558.04 1450.55,-618.31z"/>
   <path class="fil4" d="M4486.92 3823.62l-1470.16 625.01c0,0 -321.7,-1001.51 1112.21,-1518.37l357.96 893.36z"/>
   <path class="fil4" d="M5992.61 3430.77c0,0 -301.83,-972.74 -1651.41,-580.89 -40.22,11.69 -212.23,80.38 -212.23,80.38l320.42 905.01 1543.23 -404.5z"/>
   <path class="fil5" d="M3057.76 4460.82c-24.19,0 -38.21,-3.79 -40.92,-11.69 -0.15,-0.44 -0.26,-0.9 -0.36,-1.37 0.18,0.59 0.26,0.88 0.26,0.88l1458.97 -620.26 1516.88 -397.6 0 0c0.32,0.93 0.5,1.95 0.46,2.97 -0.08,36.43 -196.06,135.93 -507.82,264.37 -11.16,4.61 -22.5,9.24 -33.98,13.9 -144.27,58.85 -311.53,123.31 -494.41,190.29 -11.02,4.02 -22.09,8.07 -33.19,12.12 -121.36,44.19 -249.22,89.37 -381.6,134.66 -38.09,13.05 -75.95,25.88 -113.4,38.47 -11.46,3.85 -22.76,7.64 -34.13,11.43 -186.99,62.49 -364.78,119 -526.68,167.79 -12.47,3.76 -24.86,7.48 -37.13,11.13 -254.2,75.9 -466.75,131.76 -610.91,160.68 -16.09,3.24 -31.3,6.12 -45.64,8.66 -50.25,8.91 -89.6,13.58 -116.41,13.58z"/>
   <path class="fil5" d="M3016.75 4448.63c0,0 -0.08,-0.29 -0.26,-0.88l0 0c-10.61,-63.01 635.27,-337.82 1450.9,-616.91 1.14,-0.41 2.25,-0.78 3.41,-1.16l4.92 -1.31 -1458.97 620.26z"/>
   <path class="fil5" d="M4470.8 3829.68c712.8,-243.83 1320.5,-410.57 1480.89,-410.57 24.19,0 38.23,3.79 40.92,11.66l-1516.88 397.6 -4.92 1.31z"/>
   <path class="fil3" d="M4614.72 2783.73c0.47,3.26 -57.73,13 -150.15,35.29 -92.48,22.03 -218.76,58.61 -353.99,110.95 -135.15,52.58 -253.07,110.81 -336.22,156.89 -83.27,45.9 -132.78,77.96 -134.62,75.25 -0.78,-1.16 10.81,-10.34 32.5,-26 21.6,-15.8 54.01,-37.01 95.01,-61.67 81.81,-49.57 199.76,-110.34 336.01,-163.36 136.28,-52.75 264.38,-87.47 358.2,-106.05 46.89,-9.48 85.13,-15.66 111.74,-18.54 26.58,-3.09 41.32,-4.14 41.53,-2.77z"/>
   <path class="fil2" d="M4651.3 3748.6l-360.15 141.01c8.77,40.13 217.65,613.56 217.65,613.56l337.01 -141.15 -194.51 -613.42z"/>
   <path class="fil3" d="M5178.03 3588.8c0.21,0.67 -5.71,3.23 -17.17,7.46 -13.76,4.81 -30.39,10.63 -50.42,17.63 -47.01,15.71 -109.88,36.72 -186.17,62.23 -157.24,52.37 -374.13,125.64 -612.31,210.46 -238.21,84.9 -452.59,165.25 -607.53,224.1 -75.25,28.48 -137.24,51.94 -183.58,69.48 -19.94,7.23 -36.52,13.24 -50.22,18.22 -11.54,3.97 -17.75,5.72 -18.01,5.07 -0.26,-0.64 5.42,-3.68 16.5,-8.86 13.28,-5.94 29.4,-13.08 48.78,-21.74 42.52,-18.54 104.43,-44.36 181.32,-75.49 153.68,-62.32 367.48,-144.85 605.95,-229.84 238.4,-84.9 456.23,-156.1 614.69,-205.01 79.25,-24.48 143.57,-43.63 188.25,-56.13 20.46,-5.57 37.48,-10.17 51.53,-13.99 11.86,-3.01 18.18,-4.26 18.39,-3.59z"/>
   <path class="fil6" d="M3142.95 4217.17c-25.47,-280.76 115.1,-556.12 312.49,-757.4 196.87,-200.75 446.36,-340.09 692.29,-476.49l0.61 1.69c-123.52,264.35 -136.23,578.47 -34.34,851.91l-971.06 380.29z"/>
   <path class="fil6" d="M4148.34 2984.97l-0.61 -1.69c0.64,-0.36 1.25,-0.74 1.89,-1.08 -0.44,0.93 -0.88,1.83 -1.28,2.77z"/>
   <path class="fil7" d="M3622.8 3338.18c2.01,3.59 -52,31.15 -127.39,91.66 -37.92,29.91 -79.59,69.72 -122.09,117.19 -41.47,48.35 -83.18,104.9 -119.78,168.73 -35.79,64.32 -62.75,129.23 -82.77,189.7 -18.77,60.91 -31.39,117.17 -37.42,165.07 -12.94,95.8 -8.72,156.25 -12.79,156.37 -1.4,0.08 -3.01,-14.9 -4.73,-42.23 -1.07,-13.66 -1.81,-30.39 -0.76,-49.83 0.85,-19.44 0.55,-41.71 4.06,-66.02 4.31,-48.9 15.68,-106.49 33.83,-168.89 19.41,-61.99 46.41,-128.5 82.95,-194.14 37.36,-65.13 80.41,-122.55 123.49,-171.14 44.07,-47.74 87.58,-87.18 127.21,-116.12 19.01,-15.53 38.27,-26.78 54.48,-37.51 16.12,-10.93 30.81,-18.97 43.1,-25.07 24.28,-12.65 37.95,-19 38.62,-17.78z"/>
   <path class="fil7" d="M4014.04 2774.23c3.38,4.87 -31.07,32.43 -61.82,75.81 -31.33,42.98 -46.45,84.4 -52.16,82.76 -5.16,-0.93 2.01,-48.06 35.7,-94.6 33.37,-46.78 75.78,-68.6 78.29,-63.97z"/>
   <path class="fil2" d="M9722.48 3830.07c-132.09,-130.66 -345.08,-129.49 -475.7,2.59l478.3 473.11c130.63,-132.05 129.49,-345.04 -2.59,-475.7z"/>
   <path class="fil4" d="M9906.13 5930.13c44.79,-45.27 -419.46,-577.13 -1036.92,-1187.92 -617.47,-610.79 -1154.35,-1069.21 -1199.14,-1023.91 -44.79,45.29 419.42,577.13 1036.92,1187.91 617.46,610.79 1154.35,1069.21 1199.14,1023.92z"/>
   <path class="fil4" d="M8884.36 4756.53l-1213.89 -1038.53c0,0 753.74,-733.73 1854.64,320.45l-640.75 718.08z"/>
   <path class="fil4" d="M9906.13 5930.13c0,0 736.84,-703.13 -214.57,-1737.39 -28.35,-30.81 -166.45,-154.29 -166.45,-154.29l-667.92 689.63 1048.93 1202.06z"/>
   <path class="fil5" d="M9896.95 5933.22c-44.27,0 -205.68,-120.75 -433.63,-318.99 -10.31,-8.95 -20.78,-18.1 -31.36,-27.37 -128.67,-112.91 -276.75,-248.61 -435.83,-399.98 -9.06,-8.63 -18.18,-17.32 -27.3,-26.03 -84.76,-80.96 -172.45,-166.21 -261.84,-254.64 -43.98,-43.48 -87.23,-86.65 -129.52,-129.19 -8.6,-8.63 -17.14,-17.26 -25.65,-25.86 -137.41,-138.73 -264.78,-271.22 -377.66,-392.34 -8.53,-9.21 -16.99,-18.31 -25.39,-27.35 -166.45,-179.61 -299.23,-332.57 -382.84,-441.17 -8.95,-11.6 -17.37,-22.73 -25.16,-33.31 -47.65,-64.58 -73.65,-109.44 -73.71,-129.69 0,-3.97 0.99,-6.97 3.01,-9.01 0.32,-0.32 0.69,-0.64 1.07,-0.93 -0.44,0.44 -0.67,0.64 -0.67,0.64l1204.65 1030.6 1031 1181.54c-2.07,2.07 -5.13,3.09 -9.18,3.09z"/>
   <path class="fil5" d="M8875.13 4748.59l-1204.65 -1030.6c0,0 0.23,-0.2 0.67,-0.64 2.02,-1.43 4.69,-2.16 8.1,-2.16 84.87,0 600.71,444.13 1189.96,1027 0.84,0.88 1.69,1.69 2.56,2.54l3.35 3.85z"/>
   <path class="fil5" d="M9906.13 5930.13l0 0 -1031 -1181.54 -3.35 -3.85c616.16,609.71 1079.09,1140.19 1034.36,1185.39l0 0z"/>
   <path class="fil3" d="M9872.5 4408.27c-2.71,1.87 -37.31,-45.93 -98.4,-118.77 -60.88,-73.01 -149.86,-169.85 -256.89,-267.67 -107.25,-97.64 -211.85,-177.34 -290.11,-231.27 -78.17,-54.15 -128.91,-84.23 -127.28,-87.11 0.67,-1.22 14.04,5.1 37.71,17.57 23.75,12.3 57.18,31.86 97.49,57.62 80.82,51.21 187.73,129.81 295.82,228.23 107.9,98.59 195.97,197.83 254.38,273.61 29.32,37.77 51.87,69.28 66.3,91.81 14.61,22.41 22.12,35.14 20.96,35.96z"/>
   <path class="fil2" d="M9024.67 4870.34l-286.53 -259.8c-32,25.7 -452.62,467.92 -452.62,467.92l276.38 239.02 462.76 -447.14z"/>
   <path class="fil3" d="M9402.16 5270.96c-0.5,0.47 -5.43,-3.67 -14.34,-12.06 -10.41,-10.17 -23.03,-22.47 -38.21,-37.31 -35,-35.12 -81.78,-82.07 -138.59,-139.05 -116.84,-117.51 -278.98,-279.12 -460.9,-454.69 -182.04,-175.57 -349.36,-331.81 -470.98,-444.37 -58.99,-54.7 -107.6,-99.79 -143.92,-133.51 -15.36,-14.63 -28.12,-26.78 -38.65,-36.84 -8.72,-8.6 -13.03,-13.38 -12.56,-13.9 0.44,-0.5 5.68,3.23 15.24,10.84 11.24,9.27 24.83,20.52 41.18,34.01 35.52,29.84 86.21,73.79 148.29,128.79 124.19,109.91 293.25,264.67 475.47,440.42 182.1,175.74 342.81,339.13 457.08,459.29 57.19,60.07 102.94,109.14 134.04,143.57 14.08,15.88 25.79,29.06 35.48,39.95 7.96,9.27 11.86,14.4 11.37,14.86z"/>
   <path class="fil6" d="M8706.55 4428.43l-772.63 -700.41c134,-82.48 289.55,-117.87 447.46,-117.87 124.97,0 251.43,22.18 369.88,60.71 267.38,86.99 503.19,248.43 734.74,407.94l-1.26 1.31c-291.68,7.02 -578.64,135.41 -778.2,348.31z"/>
   <path class="fil6" d="M9484.75 4080.13l1.26 -1.31c0.61,0.44 1.2,0.84 1.81,1.26 -1.02,0 -2.04,0.02 -3.07,0.06z"/>
   <path class="fil7" d="M8934.58 3766.64c-2.3,3.38 -51,-32.7 -138.73,-73.3 -43.65,-20.66 -97.87,-40.28 -159.27,-57.19 -61.79,-15.65 -130.98,-27.83 -204.42,-32.2 -73.5,-3.47 -143.63,1.31 -206.72,10.29 -62.9,10.26 -118.86,24.02 -164.47,39.93 -91.57,31.05 -143.83,61.73 -145.75,58.12 -0.67,-1.22 12.04,-9.33 35.73,-23.03 11.75,-7.06 26.44,-15.16 44.3,-22.85 17.78,-7.9 37.6,-18.07 60.91,-25.73 45.73,-17.89 102.36,-33.37 166.33,-44.85 64.15,-10.2 135.73,-15.62 210.75,-12.09 74.96,4.46 145.54,17.48 208.24,34.42 62.33,18.24 117.02,39.64 160.56,62.28 22.38,10.11 41.04,22.36 57.86,32.09 16.96,9.56 30.68,19.18 41.61,27.45 22.12,16.12 33.9,25.54 33.08,26.67z"/>
   <path class="fil7" d="M9613.74 3866.09c-2.86,5.19 -42.87,-13.38 -95.39,-21.63 -52.46,-8.91 -96.26,-4.05 -97.31,-9.88 -1.52,-5.04 43.89,-19.58 100.58,-10.11 56.72,9.06 95.16,37.31 92.12,41.62z"/>
   <path class="fil2" d="M7017.54 10822.67l463.56 700.47c49.11,74.21 145.31,101.01 225.72,62.86 85.57,-40.6 124.63,-140.88 89.07,-228.67l-326.51 -806.07 -451.83 271.4z"/>
   <path class="fil3" d="M7017.54 10822.67c-0.29,-0.06 2.16,-1.78 7.2,-5.05 5.97,-3.78 13.49,-8.57 22.82,-14.47 21.54,-13.36 51.38,-31.87 89.13,-55.26 79.51,-48.67 192.15,-117.57 329.63,-201.71l5.95 -3.61 2.62 6.49c87.67,215.25 200.02,491.07 322.2,791.04 20.89,43.68 25.79,96.93 9.91,142.66 -15.04,46.04 -48.46,84.78 -90.08,106.29 -41.39,22.03 -90.27,26.92 -133.75,15.33 -43.63,-11.32 -81.57,-38.76 -105.65,-74.3 -90.94,-138.73 -172.89,-263.73 -241.99,-369.15 -67.45,-103.93 -122.26,-188.42 -161,-248.11 -18.16,-28.3 -32.49,-50.68 -42.98,-67.03 -4.35,-7.01 -7.9,-12.69 -10.81,-17.34 -2.36,-3.88 -3.44,-5.83 -3.18,-5.77 0.26,0.06 1.84,2.13 4.69,6.11 3.3,4.73 7.34,10.5 12.3,17.58 11.19,16.41 26.49,38.85 45.84,67.18 39.87,59.1 96.3,142.71 165.72,245.6 69.36,103.67 151.64,226.57 242.9,362.96 22.44,32.77 57.53,57.94 97.83,68.23 40.17,10.55 85.08,5.89 123.17,-14.46 38.23,-19.9 68.87,-55.51 82.66,-97.87 14.33,-42.61 10.52,-89.73 -9.62,-132.23 -121.03,-300.45 -232.32,-576.72 -319.16,-792.28l8.57 2.86c-137.48,81.05 -250.15,147.44 -329.66,194.32 -38.9,22.64 -69.65,40.51 -91.84,53.41 -10.02,5.72 -18.07,10.29 -24.45,13.94 -5.63,3.12 -8.65,4.69 -8.95,4.63z"/>
   <path class="fil2" d="M3185.97 9743.22l-551.71 633.35c-58.47,67.1 -58.67,166.97 -0.5,234.33 61.93,71.67 168.98,82.6 244.11,24.94l690.01 -529.39 -381.92 -363.24z"/>
   <path class="fil3" d="M3185.97 9743.22c-0.02,-0.31 2.28,1.61 6.79,5.6 5.25,4.75 11.84,10.69 20.03,18.13 18.6,17.19 44.39,41.04 77,71.2 68.08,63.69 164.53,153.89 282.22,263.99l5.07 4.76 -5.57 4.29c-184.11,141.82 -420.03,323.56 -676.66,521.22 -36.52,31.77 -86.56,50.65 -134.85,47.53 -48.4,-2.21 -94.63,-24.16 -126.46,-58.52 -32.23,-34.04 -49.98,-79.85 -50.39,-124.82 -0.73,-45.1 15.65,-88.99 43.48,-121.66 109.5,-124.59 208.16,-236.86 291.37,-331.55 82.21,-92.69 149.05,-168.03 196.26,-221.28 22.44,-25 40.18,-44.79 53.19,-59.28 5.57,-6.07 10.11,-10.99 13.81,-15.01 3.11,-3.32 4.72,-4.87 4.72,-4.61 0,0.26 -1.57,2.34 -4.63,6.15 -3.68,4.44 -8.2,9.86 -13.71,16.53 -12.82,15.15 -30.36,35.88 -52.54,62.09 -46.34,54.18 -111.92,130.82 -192.59,225.14 -81.43,94.45 -177.99,206.49 -285.15,330.79 -25.62,30.33 -40.55,70.88 -39.7,112.47 0.5,41.5 16.96,83.55 46.72,114.86 29.35,31.56 71.84,51.61 116.35,53.58 44.88,2.49 89.27,-13.75 124.88,-44.46 257.38,-196.67 494.01,-377.52 678.67,-518.64l-0.46 9.03c-114.74,-110.95 -208.74,-201.86 -275.1,-266.01 -32.18,-31.48 -57.62,-56.37 -75.96,-74.32 -8.15,-8.13 -14.71,-14.66 -19.94,-19.84 -4.51,-4.58 -6.85,-7.08 -6.85,-7.38z"/>
   <path class="fil4" d="M9540.22 8227.34c-362.22,1951.28 -2237.67,3239.49 -4188.95,2877.27 -1951.28,-362.2 -3239.49,-2237.66 -2877.28,-4188.94 362.19,-1951.28 2237.67,-3239.49 4188.95,-2877.28 1951.28,362.19 3239.49,2237.66 2877.28,4188.95z"/>
   <path class="fil3" d="M9540.22 8227.34c0,0 2.59,-19.59 8.42,-57.71 2.94,-19.09 6.58,-42.79 10.93,-70.94 4.54,-28.18 9.82,-60.89 13.06,-98.36 3.93,-37.39 8.33,-79.19 13.17,-125.33 3.79,-46.19 5.65,-96.93 8.95,-151.76 4.81,-109.75 4.23,-236.69 -3.93,-379.15 -10.84,-142.2 -26.7,-300.46 -62.43,-470.45 -34.38,-170.03 -81.69,-353.32 -153.42,-542.98 -140.88,-379.17 -367.61,-790.7 -710.4,-1169.41 -170.5,-189.59 -371.13,-368.6 -599.25,-528.05 -227.97,-159.28 -483.23,-300.61 -763.72,-406.78 -279.74,-107.28 -582.47,-185.27 -900.14,-218.99 -158.52,-19.85 -320.85,-23.64 -484.94,-21.69 -164.17,4.43 -330.04,20.46 -496.45,46.89 -165.87,29.49 -332.52,67.27 -496.93,119.99 -163.94,53.68 -326.98,116.96 -485.5,194.45 -158.08,78.29 -312.52,167.85 -461.53,268.9 -147.71,102.88 -289.58,216.98 -423.8,341.86 -134.68,124.51 -258.08,263.1 -373.41,409.44 -27.89,37.3 -58.23,72.97 -84.28,111.89 -26.76,38.38 -53.54,76.88 -80.39,115.44 -49.95,79.57 -101.07,158.9 -145.63,242.49 -90.61,166.07 -172.25,339.2 -235.55,520.54 -64.03,181.02 -114.68,367.95 -151.46,558.88 -34.25,191.5 -54.15,384.21 -59.4,576.19 -5.97,192.04 7.96,383 32.96,570.58 11.57,94.05 30.81,186.46 48.84,278.71 11.23,45.64 22.41,91.17 33.58,136.63 10.35,45.7 25.88,89.89 38.53,134.74 55.11,178.05 120.52,351.72 201.57,516.31 80.47,164.79 171.93,322.25 272.89,471.32 102.85,147.83 214.88,286.91 334.35,416.72 120.16,129.26 249.62,246.86 383.43,355.83 134.53,108.22 276.56,203.33 420.79,290.37 145.87,84.41 294.98,158.91 446.65,222 152.46,60.68 305.38,115.42 460.47,153.8 308.67,82.5 619.24,118.33 918.85,118.59 299.95,1.57 588.89,-38.8 858.86,-105.65 270.15,-66.98 521.64,-162.08 748.8,-277.9 455.88,-230.47 815.15,-533.24 1082.7,-836.58 135,-151.26 244.91,-305.39 338,-451.75 94.37,-145.84 165.95,-287.83 227.07,-416.66 58.72,-130.05 104.8,-248.29 139.72,-352.45 16.61,-52.35 33.05,-100.35 46.11,-144.85 12,-44.77 22.91,-85.37 32.67,-121.68 10.43,-36.14 17.23,-68.55 23.12,-96.47 6.06,-27.83 11.16,-51.24 15.27,-70.12 8.22,-37.66 12.83,-56.86 12.83,-56.86 0,0 -3.59,19.41 -11.31,57.15 -3.91,18.94 -8.77,42.4 -14.52,70.32 -5.65,28.01 -12.24,60.51 -22.41,96.73 -9.56,36.4 -20.22,77.09 -32,121.97 -12.83,44.62 -29.09,92.74 -45.47,145.25 -34.51,104.43 -80.2,222.99 -138.61,353.44 -60.82,129.23 -132.14,271.69 -226.34,418.09 -92.91,146.86 -202.73,301.57 -337.76,453.46 -267.55,304.6 -627.28,608.8 -1084.22,840.57 -227.68,116.45 -479.82,212.18 -750.77,279.68 -270.79,67.39 -560.72,108.15 -861.7,106.88 -300.69,0 -612.39,-35.68 -922.26,-118.28 -155.69,-38.41 -309.22,-93.22 -462.29,-154.09 -152.29,-63.21 -302.03,-137.88 -448.51,-222.55 -144.85,-87.31 -287.49,-182.74 -422.64,-291.33 -134.36,-109.29 -264.4,-227.33 -385.12,-357.06 -120.02,-130.31 -232.55,-269.89 -335.83,-418.27 -101.45,-149.65 -193.32,-307.77 -274.17,-473.19 -81.43,-165.22 -147.16,-339.62 -202.56,-518.41 -12.68,-45.06 -28.3,-89.41 -38.67,-135.29 -11.25,-45.64 -22.5,-91.36 -33.76,-137.22 -18.15,-92.62 -37.47,-185.41 -49.13,-279.88 -25.1,-188.36 -39.12,-380.14 -33.14,-572.99 5.25,-192.79 25.24,-386.32 59.6,-578.61 36.95,-191.74 87.85,-379.47 152.14,-561.22 63.59,-182.13 145.58,-355.97 236.63,-522.71 44.74,-83.97 96.09,-163.62 146.28,-243.51 26.96,-38.73 53.89,-77.38 80.73,-115.94 26.2,-39.05 56.66,-74.87 84.66,-112.32 115.85,-146.95 239.8,-286.06 375.07,-411.03 134.82,-125.35 277.28,-239.89 425.64,-343.15 149.66,-101.39 304.77,-191.28 463.52,-269.8 159.19,-77.72 322.9,-141.21 487.54,-195.01 165.07,-52.84 332.43,-90.7 498.93,-120.19 167.09,-26.47 333.63,-42.44 498.44,-46.81 164.7,-1.83 327.64,2.1 486.75,22.09 318.81,34.1 622.56,112.65 903.2,220.54 281.37,106.78 537.35,248.86 765.91,408.93 228.7,160.24 429.71,340.03 600.44,530.43 343.33,380.31 569.96,793.33 710.44,1173.67 71.52,190.23 118.5,374.05 152.55,544.52 35.41,170.43 50.86,329.03 61.23,471.46 7.72,142.75 7.84,269.83 2.57,379.7 -3.55,54.91 -5.65,105.68 -9.67,151.94 -5.13,46.11 -9.77,87.93 -13.94,125.35 -3.49,37.47 -9.01,70.15 -13.78,98.33 -4.63,28.13 -8.54,51.79 -11.69,70.85 -6.35,38.04 -9.96,57.45 -9.96,57.45z"/>
   <path class="fil7" d="M9220.87 8163.28c-331.7,1786.82 -2049.1,2966.46 -3835.91,2634.79 -1786.82,-331.69 -2966.47,-2049.09 -2634.79,-3835.91 331.67,-1786.85 2049.07,-2966.49 3835.91,-2634.79 1786.82,331.67 2966.47,2049.07 2634.8,3835.91z"/>
   <path class="fil5" d="M2749.56 8199.41c-79.57,-398.88 -86.18,-819.23 -7.44,-1243.56 294.01,-1583.88 1676.8,-2690.63 3231.62,-2690.63 199.24,0 401.32,18.16 604.28,55.84 534.64,99.24 1014.89,322.55 1416.54,634.63 -400.02,-308.76 -877.47,-529.77 -1408.49,-628.33 -203.08,-37.71 -404.94,-55.87 -604.28,-55.87 -1554.71,0 -2937.64,1106.9 -3231.62,2690.66 -73.21,394.36 -72.81,785.25 -8.48,1158.72 2.3,26.23 4.92,52.43 7.87,78.54z"/>
   <path class="fil8" d="M2741.69 8120.87c-64.32,-373.46 -64.73,-764.36 8.48,-1158.72 293.98,-1583.76 1676.91,-2690.66 3231.62,-2690.66 199.34,0 401.21,18.16 604.28,55.87 531.02,98.57 1008.47,319.57 1408.49,628.33 694.05,539.33 1153.53,1343.79 1253.44,2231.43 -255.54,-1280.74 -1264.83,-2339.44 -2627.36,-2592.36 -203.09,-37.71 -404.94,-55.86 -604.28,-55.86 -1554.71,0 -2937.64,1106.89 -3231.62,2690.65 -55.91,301.18 -68.73,600.36 -43.05,891.32z"/>
   <polygon class="fil3" points="6472.3,5015.63 6383.67,5438.08 6285.91,5417.56 6358.07,5073.56 6273.58,5055.84 6290.05,4977.38 "/>
   <path class="fil3" d="M6789.62 5440.09l-16.7 79.68 -319.26 -67 13.29 -63.39 195.27 -119.67c20.72,-12.86 35.38,-24.6 43.89,-35.21 8.54,-10.61 14.02,-21.74 16.44,-33.4 3.59,-16.9 0.58,-31.06 -9.01,-42.52 -9.57,-11.48 -25.45,-19.52 -47.57,-24.16 -18.51,-3.91 -35.94,-3.87 -52.25,0.02 -16.38,3.94 -31.07,11.86 -44.1,23.84l-61.58 -60.8c21.65,-21.08 48.47,-35.52 80.29,-43.34 31.89,-7.78 66.51,-7.75 103.93,0.09 31.42,6.58 57.76,17.48 79.19,32.7 21.34,15.18 36.64,33.48 45.79,54.94 9.15,21.45 11.05,44.85 5.74,70.21 -4.81,22.94 -14.16,43.43 -28.06,61.52 -13.87,18.1 -37.36,37.1 -70.53,57.01l-116.41 71.37 181.63 38.09z"/>
   <polygon class="fil3" points="7922.72,5622.63 7831.38,6044.47 7733.75,6023.34 7808.13,5679.81 7723.72,5661.53 7740.69,5583.19 "/>
   <path class="fil3" d="M8474.5 6961.01l-17.19 79.53 -318.82 -69.01 13.73 -63.3 195.97 -118.41c20.8,-12.74 35.55,-24.36 44.13,-34.91 8.57,-10.55 14.16,-21.65 16.7,-33.32 3.64,-16.87 0.73,-31.04 -8.77,-42.58 -9.47,-11.51 -25.3,-19.67 -47.39,-24.45 -18.51,-4.02 -35.94,-4.11 -52.29,-0.3 -16.37,3.82 -31.13,11.69 -44.24,23.55l-61.14 -61.21c21.74,-20.93 48.64,-35.2 80.53,-42.81 31.94,-7.58 66.6,-7.34 103.96,0.76 31.35,6.76 57.64,17.84 78.95,33.19 21.25,15.3 36.4,33.75 45.41,55.26 9.01,21.5 10.78,44.88 5.3,70.21 -4.96,22.91 -14.46,43.34 -28.42,61.35 -14.02,18.01 -37.62,36.87 -70.91,56.57l-116.9 70.6 181.4 39.28z"/>
   <path class="fil3" d="M8429.32 8035.76c15.04,25.77 19.15,54.5 12.27,86.24 -5.34,24.55 -16.61,45.73 -33.98,63.62 -17.34,17.93 -40.48,30.29 -69.55,36.99 -28.97,6.77 -62.57,6.03 -100.75,-2.25 -29.73,-6.41 -58.12,-16.7 -85.14,-30.72 -27.02,-14.08 -49.05,-30.49 -65.99,-49.34l54.15 -66.48c13.43,15.53 30.02,28.91 49.66,40.07 19.68,11.23 40.54,19.21 62.66,23.99 24.48,5.3 44.79,4.75 60.89,-1.64 16.09,-6.41 26.02,-18.22 29.78,-35.52 7.46,-34.53 -15.09,-57.5 -67.7,-68.9l-44.62 -9.67 13.96 -64.47 108.07 -79.45 -179.57 -38.88 16.96 -78.37 295.27 63.97 -13.7 63.28 -118.71 87.85c35.67,14.04 61.04,33.95 76.01,59.68z"/>
   <polygon class="fil3" points="8041.96,9192 7973.26,9177.14 7954.09,9265.74 7858.84,9245.1 7878.01,9156.53 7650.86,9107.33 7665.08,9041.65 7921.85,8817.11 8024.29,8839.32 7784.99,9053.1 7898.27,9077.63 7915.35,8998.69 8007.6,9018.65 7990.52,9097.6 8059.18,9112.46 "/>
   <path class="fil3" d="M7015.26 9772.19c23.2,29.87 30.46,64.67 21.83,104.46 -5.54,25.7 -17.04,47.7 -34.44,66.01 -17.43,18.33 -40.69,30.97 -69.72,37.92 -29.06,6.96 -62.86,6.26 -101.45,-2.07 -29.73,-6.46 -58.11,-16.7 -85.1,-30.77 -27.07,-14.04 -49.05,-30.49 -66.02,-49.28l54.77 -66.4c13.43,15.53 29.93,28.88 49.37,40.02 19.44,11.19 40.23,19.15 62.34,23.93 24.48,5.3 44.79,4.65 60.97,-1.96 16.15,-6.58 26.09,-18.51 29.85,-35.8 3.9,-18.09 -0.47,-33.31 -13.14,-45.75 -12.65,-12.41 -37.04,-22.53 -73.25,-30.34l-107.83 -23.37 73.09 -232.75 257.32 55.73 -16.96 78.34 -175.98 -38.13 -23.98 78.72 34.36 7.44c59.46,12.91 100.78,34.24 123.98,64.06z"/>
   <path class="fil3" d="M5528.94 10095.35c15.47,-8.39 25.35,-22.23 29.52,-41.56 4.2,-19.27 0.97,-36.05 -9.62,-50.33 -10.55,-14.28 -26.73,-23.75 -48.41,-28.44 -21.27,-4.63 -40.04,-2.48 -56.28,6.41 -16.23,8.89 -26.35,22.59 -30.34,41.07 -4,18.47 -0.64,34.97 10.11,49.49 10.7,14.54 27.54,24.27 50.45,29.26 20.86,4.51 39.11,2.56 54.56,-5.89zm78.37 -156.51c19.76,15.66 33.9,34.77 42.46,57.48 8.57,22.64 10.02,47.03 4.37,73.16 -6.09,28.15 -18.48,51.32 -37.16,69.55 -18.68,18.25 -41.42,30.47 -68.2,36.67 -26.82,6.19 -55.06,6.06 -84.76,-0.37 -59.1,-12.8 -101.36,-40.89 -126.9,-84.29 -25.53,-43.4 -30.98,-98.59 -16.47,-165.69 10.34,-47.8 28.27,-86.83 53.72,-117.08 25.5,-30.22 56.3,-50.7 92.47,-61.37 36.17,-10.67 75.58,-11.4 118.16,-2.19 22.5,4.86 43.54,12.09 63.13,21.6 19.65,9.49 35.65,20.42 48.12,32.79l-51.7 63.88c-17.84,-18.57 -42.64,-31.33 -74.38,-38.21 -35.76,-7.72 -66.33,-3.41 -91.74,12.97 -25.45,16.35 -43.25,44.24 -53.45,83.67 30.31,-19.5 67.73,-24.41 112.36,-14.77 26.92,5.86 50.24,16.55 69.98,32.2z"/>
   <polygon class="fil3" points="4621.85,9131.82 4608.16,9195.09 4373.87,9519.78 4267.77,9496.8 4493.16,9187.22 4353.34,9156.95 4338.48,9225.64 4251.69,9206.84 4283.77,9058.61 "/>
   <path class="fil3" d="M3713.41 8161.38c-13.94,6.88 -22.68,18.56 -26.26,35 -3.47,16.09 -0.38,29.99 9.29,41.76 9.62,11.78 24.55,19.82 44.63,24.17 20.05,4.35 37.13,3.21 51.17,-3.41 14.05,-6.62 22.83,-17.98 26.32,-34.04 3.55,-16.5 0.32,-30.75 -9.67,-42.79 -10,-12.04 -25.07,-20.28 -45.12,-24.63 -19.7,-4.25 -36.52,-2.94 -50.36,3.93zm48.67 284.98c16.64,-7.96 26.99,-21.16 30.98,-39.64 4.02,-18.51 0.03,-34.68 -11.89,-48.61 -11.9,-13.96 -30.14,-23.58 -54.59,-28.92 -24.13,-5.19 -44.41,-3.91 -60.82,3.91 -16.41,7.81 -26.59,20.93 -30.58,39.4 -4.08,18.89 -0.32,35.3 11.39,49.17 11.72,13.87 29.64,23.46 53.77,28.68 24.49,5.3 45.06,3.99 61.73,-3.99zm125.24 -77.3c7.4,19.3 8.72,39.96 3.93,62.08 -5.65,26.11 -18.04,47.27 -37.13,63.54 -19.06,16.29 -43.25,26.81 -72.45,31.65 -29.24,4.81 -61.52,3.38 -96.85,-4.25 -35.38,-7.63 -65.26,-19.73 -89.68,-36.14 -24.42,-16.44 -41.82,-36 -52.29,-58.67 -10.43,-22.61 -12.86,-47.01 -7.17,-73.12 4.75,-22.12 14.52,-40.4 29.24,-54.91 14.69,-14.46 33.39,-24.72 56.16,-30.72 -13.56,-13.05 -23.03,-27.78 -28.27,-44.27 -5.22,-16.5 -5.83,-34.19 -1.72,-53.11 5.3,-24.48 16.7,-44.3 34.3,-59.43 17.54,-15.1 39.7,-24.95 66.33,-29.47 26.64,-4.58 55.82,-3.4 87.58,3.47 32.12,6.96 59.46,18.04 82.07,33.25 22.56,15.18 38.71,33.32 48.47,54.36 9.73,21.04 11.95,43.8 6.64,68.31 -4.08,18.89 -11.92,34.74 -23.55,47.56 -11.6,12.86 -26.49,22.32 -44.65,28.5 18.62,14.98 31.63,32.09 39.03,51.35z"/>
   <path class="fil3" d="M3743.1 7070.57c16.04,-8.91 26,-22.64 30.02,-41.13 3.99,-18.47 0.73,-34.94 -9.79,-49.43 -10.53,-14.48 -27.25,-24.19 -50.13,-29.17 -20.93,-4.52 -39.11,-2.54 -54.62,5.86 -15.47,8.43 -25.3,22.26 -29.47,41.56 -4.16,19.27 -0.99,36.05 9.59,50.36 10.58,14.25 26.69,23.72 48.41,28.44 21.27,4.6 39.95,2.45 55.98,-6.5zm106.79 -109.99c25.54,43.17 31.01,98.51 16.41,166.01 -10.34,47.83 -28.18,86.89 -53.42,117.14 -25.3,30.28 -56.1,50.73 -92.48,61.38 -36.37,10.61 -75.86,11.33 -118.47,2.1 -22.5,-4.87 -43.42,-12.04 -62.84,-21.48 -19.38,-9.47 -35.35,-20.4 -47.8,-32.73l51.68 -63.91c17.46,18.51 42.26,31.25 74.41,38.21 35.76,7.72 66.33,3.32 91.8,-13.26 25.45,-16.56 43.31,-44.56 53.54,-84 -30.81,19.82 -68.5,24.92 -113.12,15.24 -26.92,-5.8 -50.21,-16.52 -69.98,-32.18 -19.76,-15.62 -33.9,-34.8 -42.43,-57.44 -8.57,-22.68 -10.03,-47.07 -4.37,-73.18 6.09,-28.13 18.47,-51.3 37.19,-69.56 18.62,-18.25 41.36,-30.46 68.17,-36.66 26.78,-6.18 55.06,-6.06 84.76,0.38 59.08,12.79 101.39,40.77 126.96,83.95z"/>
   <polygon class="fil3" points="4239.48,5811.42 4167.9,6237.09 4069.39,6220.53 4127.67,5873.91 4042.54,5859.6 4055.84,5780.56 "/>
   <path class="fil3" d="M4504.03 6181.07c18.53,-19.82 31.77,-53.04 39.61,-99.64 7.84,-46.64 6.2,-82.33 -4.87,-107.11 -11.05,-24.77 -29.53,-39.37 -55.47,-43.71 -25.53,-4.29 -47.56,3.46 -66.1,23.26 -18.56,19.82 -31.73,53.04 -39.57,99.64 -7.87,46.64 -6.24,82.33 4.81,107.11 11.05,24.77 29.32,39.34 54.88,43.63 25.93,4.37 48.14,-3.38 66.71,-23.17zm-170.58 64.47c-24.63,-22.07 -41.97,-50.92 -52.06,-86.59 -10.05,-35.67 -11.22,-76.39 -3.49,-122.21 7.69,-45.82 22.12,-83.91 43.27,-114.34 21.19,-30.39 47.02,-52.02 77.53,-64.82 30.46,-12.79 63.37,-16.23 98.63,-10.29 35.27,5.92 65.23,19.91 89.89,41.97 24.59,22.07 41.94,50.95 52,86.62 10.05,35.67 11.22,76.39 3.52,122.21 -7.69,45.81 -22.15,83.94 -43.31,114.33 -21.16,30.43 -46.98,52 -77.47,64.82 -30.49,12.8 -63.39,16.23 -98.65,10.32 -35.27,-5.95 -65.23,-19.97 -89.85,-42.03z"/>
   <polygon class="fil3" points="5216.21,5176.94 5127.88,5599.4 5030.09,5578.97 5102.05,5234.94 5017.53,5217.27 5033.94,5138.79 "/>
   <polygon class="fil3" points="5452.81,5226.39 5364.45,5648.88 5266.66,5628.45 5338.62,5284.42 5254.1,5266.74 5270.51,5188.28 "/>
   <path class="fil3" d="M6092.55 4728.54l-13.85 -0.53 7.23 -203.9 15.07 0.59 -8.45 203.84zm-251.06 1.4l-10.25 -203.75 14.04 -0.68 10.32 203.76 -14.11 0.67zm487.8 17.78l-13.76 -1.66 24.13 -202.62 14.95 1.83 -25.32 202.44zm-724.16 4.14l-27.22 -202.21 14.31 -1.89 27.16 202.18 -14.25 1.92zm958.52 34.72l-13.62 -2.83 40.92 -199.85 14.75 3.02 -42.05 199.65zm-1192.14 7.02l-44.07 -199.2 14.46 -3.18 43.37 199.35 -13.76 3.03zm1423.03 51.12l-13.76 -4 57.1 -195.88 14.04 4.14 -57.38 195.74zm-1652.26 10.08l-60.88 -194.72 14.08 -4.37 60.33 194.87 -13.52 4.22zm1876.64 66.77l-13.24 -5.13 73.48 -190.31 13.76 5.34 -74 190.11zm-2100.06 13.44l-77.01 -188.92 13.93 -5.63 75.96 189.32 -12.88 5.22zm2317.63 82.1l-12.76 -6.24 88.8 -183.64 13.26 6.44 -89.3 183.43zm-2533.83 16.61l-92.18 -181.98 13.26 -6.71 91.49 182.33 -12.57 6.35zm2742.19 96.7l-12.27 -7.31 104.45 -175.28 12.68 7.61 -104.86 174.98zm-2949.14 19.51l-107.25 -173.53 12.67 -7.81 106.56 174 -11.98 7.34zm3147.44 111.13l-11.6 -8.34 118.94 -165.74 11.98 8.59 -119.32 165.49zm-3344.18 21.98l-121.35 -164 12.06 -8.86 120.54 164.55 -11.25 8.31zm3530.88 124.94l-10.55 -9.03 131.76 -155.76 11.54 9.82 -132.76 154.96zm-3715.81 24.07l-134.67 -153.27 11.57 -10.09 133.4 154.38 -10.29 8.97zm3889.33 137.8l-9.76 -9.86 144.59 -143.94 10.64 10.75 -145.47 143.05zm-4061.41 26.29l-146.65 -141.82 10.38 -10.73 146.07 142.46 -9.8 10.09zm4221.09 149.89l-9.18 -10.95 156.33 -131.07 9.44 11.25 -156.6 130.77zm-4378.56 27.75l-158.2 -128.82 9.59 -11.71 157.41 129.78 -8.8 10.76zm4522.77 160.79l-8.05 -11.43 166.56 -117.83 8.6 12.21 -167.12 117.04zm-4664.86 29.56l-168.43 -115.1 8.6 -12.5 167.69 116.17 -7.87 11.43zm4792.86 170.29l-7 -11.89 175.8 -103.55 7.64 13.09 -176.44 102.35zm-4918.42 31.45l-177.43 -100.7 7.38 -12.97 177.05 101.4 -7 12.27zm5029.57 178.77l-6 -12.56 183.64 -88.8 6.5 13.55 -184.14 87.81zm-5137.47 32.41l-185.51 -84.95 6.41 -13.82 184.81 86.36 -5.72 12.42zm5230.59 186.09l-4.9 -12.94 190.29 -73.5 5.36 14.04 -190.75 72.4zm-5320.44 33.63l-192.01 -69.02 5.11 -14.04 191.65 69.88 -4.75 13.18zm5394.91 191.57l-3.82 -13.29 195.94 -56.86 4.14 14.42 -196.26 55.72zm-5466.14 35l-197.05 -52.87 4.06 -14.81 196.55 54.59 -3.56 13.09zm5521.63 196.25l-2.83 -14.25 200.08 -39.79 2.8 14.02 -200.05 40.02zm-5573.94 35.56l-200.69 -36.66 2.77 -14.9 200.43 38 -2.5 13.56zm5609.65 198.94l-1.6 -14.28 202.7 -22.93 1.66 14.45 -202.76 22.76zm-5642.61 36.32l-203.02 -19.79 1.51 -15.07 202.91 21.13 -1.4 13.72zm5658.41 200.17l-0.38 -13.85 203.9 -6.03 0.44 15.04 -203.95 4.84zm-5671.58 37.07l-203.99 -3.03 0.26 -15.04 203.99 4.2 -0.26 13.87zm5871.1 212.5l-203.7 -12.06 0.82 -13.85 203.72 10.87 -0.84 15.04zm-6067.78 39.12l-1.02 -14.72 203.55 -13.85 0.96 14.05 -203.49 14.52zm6041.99 214.12l-201.98 -29.03 1.96 -13.61 202.12 27.66 -2.1 14.98zm-6013.3 38.56l-2.19 -14.14 201.57 -31.59 2.21 14.37 -201.59 31.36zm5965.44 216.44l-198.82 -45.79 3.09 -13.52 200.37 38.94 -4.63 20.37zm-5915.49 33.16l-3.49 -14.46 198.42 -47.47 3.26 13.61 -198.19 48.32zm5847.82 212.59l-194.02 -63.07 4.06 -12.86 194.63 61.23 -4.66 14.69zm-5777.18 31.94l-4.63 -13.99 193.63 -64.15 4.49 13.41 -193.49 64.73zm5689.48 206.7l-188.31 -78.45 5.21 -12.66 188.92 77.01 -5.82 14.1zm-5598.55 31.13l-5.88 -13.79 187.69 -79.97 5.49 12.82 -187.29 80.94zm5491.11 199.5l-181.25 -93.64 6.53 -12.68 181.52 93.15 -6.79 13.18zm-5380.6 29.93l-7.2 -13.5 180.52 -95.07 6.39 12.09 -179.71 96.47zm5253.81 191.27l-172.48 -109.03 7.46 -11.86 173.01 108.16 -7.99 12.73zm-5124.76 27.98l-8.13 -12.67 171.84 -109.97 7.52 11.69 -171.23 110.95zm4980.21 181.17l-163.18 -122.38 8.68 -11.6 163.21 122.38 -8.71 11.6zm-4833.34 26.64l-9.18 -11.98 162.19 -123.75 8.45 11.02 -161.46 124.71zm4671.21 170.2l-151.88 -136.22 9.36 -10.49 152.45 135.57 -9.93 11.14zm-4507.47 24.72l-10.15 -11.19 151.26 -136.89 9.36 10.26 -150.48 137.83zm4329.39 157.83l-139.35 -148.96 9.91 -9.41 140.6 147.85 -11.16 10.53zm-4149.94 22.75l-11.08 -10.31 139.37 -149 10.14 9.45 -138.43 149.86zm3957.65 143.89l-126.61 -160.03 10.76 -8.58 127.74 159.08 -11.89 9.53zm-3763.87 20.87l-11.54 -9.07 126.1 -160.36 11.25 8.87 -125.82 160.56zm3558.47 129.1l-113.17 -169.73 11.33 -7.64 114.51 168.84 -12.68 8.53zm-3351.11 19.13l-12.68 -8.31 112.62 -170.15 11.6 7.64 -111.54 170.82zm3133.92 113.29l-98.88 -178.46 12.18 -6.76 99.79 177.93 -13.09 7.29zm-2915.05 16.78l-12.79 -6.91 96.93 -179.53 12.8 6.91 -96.94 179.52zm2687.63 97.08l-83.97 -185.92 12.95 -5.88 84.43 185.74 -13.41 6.06zm-2458.72 14.03l-13.27 -5.81 81.72 -186.93 13.29 5.79 -81.75 186.94zm2222.12 80.69l-67.41 -192.55 12.91 -4.58 68.81 192.07 -14.31 5.06zm-1984.25 10.91l-14.22 -4.87 66.13 -192.97 13.18 4.49 -65.08 193.35zm1741.23 63.51l-51.73 -197.34 13.79 -3.61 52.02 197.22 -14.08 3.73zm-1497.26 7.78l-14.04 -3.49 49.35 -197.99 14.04 3.5 -49.35 197.98zm1248.48 46.07l-34.91 -201 13.52 -2.4 36.28 200.79 -14.89 2.61zm-999.06 4.93l-14.8 -2.43 33.63 -201.24 13.73 2.28 -32.56 201.39zm747.97 27.68l-19.32 -203.11 13.85 -1.26 19.23 203.12 -13.76 1.25zm-495.22 2.45l-15.04 -1.17 16.9 -203.34 13.78 1.1 -15.65 203.42zm239.83 8.97l-1.2 -204.02 14.46 -0.07 1.2 204.01 -14.46 0.08z"/>
   <path class="fil9" d="M6414.21 7554.58l-1577.64 432.74c-18.19,4.67 -37.4,2.97 -54.44,-4.83l-1.92 -0.88c-53.13,-24.25 -64.56,-94.66 -21.86,-134.51 9.73,-9.06 21.51,-15.62 34.36,-19.12l1582.04 -448.6 39.47 175.19z"/>
   <path class="fil9" d="M6447.41 5878.98c-6.82,-80.91 -121.13,-94.72 -145.11,-17.13l-1.26 4.16c-41.32,141.36 -446.35,2200.26 -446.35,2200.26l182.28 25.45 413.88 -2171.67 -3.44 -41.07z"/>
   <polygon class="fil3" points="6412.99,7991.9 6498.12,7909.92 4601.22,6324.79 "/>
   <path class="fil4" d="M6192.07 7543.82c15.28,102.15 -55.14,197.34 -157.28,212.64 -102.15,15.27 -197.34,-55.15 -212.64,-157.3 -15.28,-102.15 55.15,-197.34 157.29,-212.64 102.13,-15.28 197.34,55.14 212.64,157.29z"/>
   <path class="fil7" d="M7124.47 2587.49l-69.74 -352.56c-184.43,-108.77 -342.02,-268.28 -449.3,-471.51 -308.59,-584.56 -84.87,-1308.52 499.63,-1617.08 584.53,-308.55 1308.53,-84.84 1617.08,499.66 308.56,584.53 84.87,1308.49 -499.68,1617.09 -244.06,128.85 -512.37,164.55 -764.68,120.28l0.59 0.26 -333.88 203.87z"/>
   <path class="fil3" d="M7124.47 2587.49c0,0 6.99,-3.87 21.24,-12.33 14.81,-8.8 36,-21.42 63.8,-38 57.27,-34.39 141.35,-84.87 250.71,-150.51l5.68 -3.44 -6.06 -2.8 -0.61 -0.29 -2.07 6.71c151.76,27.04 359.59,33.72 587.51,-41.85 56.72,-18.63 114.19,-42.61 171.32,-72.11 55.54,-32.24 114.65,-63.54 168.4,-106.5 109.96,-81.78 213.14,-188.04 295.24,-317.48 82.16,-129.14 143.07,-281.13 170.71,-445.89 27.78,-164.5 21.85,-341.7 -24.74,-514.5 -45.61,-172.95 -134.68,-339.91 -259.78,-481.04 -125.17,-140.33 -285.21,-258.4 -469.81,-326.4 -139.14,-52.89 -285.99,-80.86 -430.58,-81.08l-3.63 0c-47.78,0.07 -95.31,3.19 -142.22,9.44 -190.14,23.26 -369.23,91.46 -520.82,190.93 -151.43,100.2 -273.62,232.37 -361.31,376.64 -87.96,144.5 -141.44,301.27 -163.5,454.25 -22.36,153.19 -13.32,302.35 17.23,437 13.67,67.96 37.48,130.77 59.66,191.42 27.66,58.41 52.03,115.97 84.2,166.65 124.89,205.76 286.85,335.14 418,411.53l-1.6 -2.27c23.55,114.45 41.73,202.71 54.12,262.95 6.09,29.08 10.75,51.29 14.02,66.89 3.15,14.89 4.92,22.06 4.92,22.06 0,0 -1.29,-8.28 -4.11,-23.66 -2.97,-15.89 -7.2,-38.5 -12.71,-68.12 -11.33,-59.89 -28.01,-147.64 -49.58,-261.43l-0.29 -1.49 -1.31 -0.82c-129.72,-77.15 -289.53,-206.66 -412.29,-411.2 -31.65,-50.36 -55.52,-107.52 -82.68,-165.49 -21.69,-60.19 -45.06,-122.4 -58.29,-189.74 -29.76,-133.37 -38.18,-280.89 -15.68,-432.3 22.23,-151.18 75.45,-305.93 162.6,-448.48 86.91,-142.32 207.69,-272.54 357.29,-371.28 149.75,-97.98 326.54,-165.11 514.09,-187.89 187.43,-24.89 384.82,0.99 568.56,70.85 364.51,137.3 631.13,455.18 720.32,796.23 46.19,170.44 52.31,345.34 25.18,507.89 -26.93,162.74 -86.77,313.07 -167.64,440.9 -80.79,128.18 -182.48,233.6 -291.05,314.91 -53.01,42.76 -111.42,73.92 -166.27,106.1 -56.48,29.44 -113.28,53.51 -169.42,72.21 -225.43,75.92 -431.69,70.71 -582.81,45.17l-27.16 -4.57 25.06 11.28 0.62 0.29 -0.38 -6.24c-107.43,66.69 -190.06,117.98 -246.34,152.92 -27.81,17.37 -48.99,30.63 -63.8,39.87 -14.4,9.04 -21.92,14.08 -21.92,14.08z"/>
   <path class="fil4" d="M8046.94 1116.96c-39.32,-339.75 -178.1,-491.53 -369.06,-511.67l-32.26 0c-190.99,20.14 -329.74,171.92 -369.09,511.67 -41.53,358.66 -207.6,382.59 -207.6,382.59l1185.64 0c0,0 -166.1,-23.93 -207.63,-382.59z"/>
   <path class="fil4" d="M8205.06 1580.97l-1086.64 0c-29.49,0 -53.42,-28.47 -53.42,-63.56 0,-35.12 23.93,-63.56 53.42,-63.56l1086.64 0c29.49,0 53.42,28.44 53.42,63.56 0,35.1 -23.93,63.56 -53.42,63.56z"/>
   <path class="fil4" d="M7661.73 1709.82l0 0c-73.25,0 -132.64,-59.37 -132.64,-132.61 0,-73.26 59.39,-132.66 132.64,-132.66 73.27,0 132.64,59.4 132.64,132.66 0,73.25 -59.37,132.61 -132.64,132.61z"/>
   <path class="fil3" d="M8197.88 1448.3c0,6.94 -238.88,12.53 -533.44,12.53 -294.69,0 -533.47,-5.59 -533.47,-12.53 0,-6.91 238.78,-12.5 533.47,-12.5 294.57,0 533.44,5.59 533.44,12.5z"/>
   <path class="fil3" d="M8197.88 1578.96c0,6.91 -238.88,12.53 -533.44,12.53 -294.69,0 -533.47,-5.63 -533.47,-12.53 0,-6.94 238.78,-12.53 533.47,-12.53 294.57,0 533.44,5.59 533.44,12.53z"/>
  </g>
 </g>
</svg>
